<svg width="38" height="45" viewBox="0 0 38 45" fill="none" xmlns="http://www.w3.org/2000/svg">
<path d="M17.7268 29.6964C27.1244 29.6964 35.058 31.2427 35.058 37.2148C35.058 43.1869 27.0736 44.6817 17.7268 44.6817C8.32907 44.6817 0.395508 43.133 0.395508 37.1633C0.395508 31.1912 8.37764 29.6964 17.7268 29.6964ZM17.7268 0.775879C24.0921 0.775879 29.1946 5.94436 29.1946 12.3921C29.1946 18.8398 24.0921 24.0083 17.7268 24.0083C11.3614 24.0083 6.25894 18.8398 6.25894 12.3921C6.25894 5.94436 11.3614 0.775879 17.7268 0.775879Z" fill="#B1B1B1"/>
<path d="M36.0315 6.76239C36.5255 6.76239 36.9201 7.17377 36.8994 7.66732L36.5354 16.386C36.516 16.8512 36.1331 17.2184 35.6675 17.2184H34.1686C33.703 17.2184 33.3201 16.8512 33.3007 16.386L32.9367 7.66732C32.9161 7.17377 33.3106 6.76239 33.8046 6.76239H36.0315ZM34.9726 22.8066C34.3178 22.8066 33.7793 22.6174 33.3573 22.239C32.9498 21.8461 32.7461 21.3659 32.7461 20.7983C32.7461 20.2162 32.9498 19.7287 33.3573 19.3358C33.7793 18.9429 34.3178 18.7464 34.9726 18.7464C35.6129 18.7464 36.1368 18.9429 36.5443 19.3358C36.9663 19.7287 37.1773 20.2162 37.1773 20.7983C37.1773 21.3659 36.9663 21.8461 36.5443 22.239C36.1368 22.6174 35.6129 22.8066 34.9726 22.8066Z" fill="#B1B1B1"/>
</svg>
