<svg width="82" height="82" viewBox="0 0 82 82" fill="none" xmlns="http://www.w3.org/2000/svg">
<circle cx="41.4305" cy="21.1446" r="13.4974" fill="#EF8220"/>
<path d="M68.4256 59.9497C68.4256 68.3359 68.4256 75.1343 41.4308 75.1343C14.436 75.1343 14.436 68.3359 14.436 59.9497C14.436 51.5635 26.522 44.7651 41.4308 44.7651C56.3396 44.7651 68.4256 51.5635 68.4256 59.9497Z" fill="#EF8220"/>
<rect x="47.3591" y="45.3591" width="32.1495" height="32.1495" rx="16.0748" fill="#EF8220"/>
<rect x="47.3591" y="45.3591" width="32.1495" height="32.1495" rx="16.0748" stroke="#F7F8F8" stroke-width="0.983785"/>
<path fill-rule="evenodd" clip-rule="evenodd" d="M62.0332 53.3574H64.8341C65.0134 53.3573 65.1695 53.3572 65.317 53.3808C65.8995 53.4738 66.4037 53.8371 66.6761 54.3604C66.7451 54.4928 66.7944 54.641 66.851 54.8111L66.9434 55.0885C66.9591 55.1355 66.9636 55.1488 66.9673 55.1592C67.1124 55.5602 67.4885 55.8313 67.9148 55.8421C67.926 55.8424 67.9397 55.8425 67.9895 55.8425H70.4745C70.8176 55.8425 71.0957 56.1206 71.0957 56.4637C71.0957 56.8068 70.8176 57.085 70.4745 57.085H56.3927C56.0496 57.085 55.7715 56.8068 55.7715 56.4637C55.7715 56.1206 56.0496 55.8425 56.3927 55.8425H58.8778C58.9275 55.8425 58.9413 55.8424 58.9525 55.8421C59.3788 55.8313 59.7549 55.5603 59.8999 55.1592C59.9037 55.1487 59.9081 55.1357 59.9238 55.0885L60.0163 54.8111C60.0729 54.641 60.1222 54.4928 60.1911 54.3604C60.4636 53.8371 60.9677 53.4738 61.5503 53.3808C61.6978 53.3572 61.8539 53.3573 62.0332 53.3574ZM60.9553 55.8425C60.998 55.7588 61.0358 55.6718 61.0683 55.5819C61.0782 55.5546 61.0879 55.5255 61.1003 55.4882L61.183 55.2402C61.2585 55.0136 61.2759 54.9674 61.2932 54.9343C61.384 54.7599 61.552 54.6387 61.7462 54.6077C61.7831 54.6018 61.8324 54.6 62.0712 54.6H64.796C65.0349 54.6 65.0842 54.6018 65.1211 54.6077C65.3152 54.6387 65.4833 54.7599 65.5741 54.9343C65.5914 54.9674 65.6087 55.0136 65.6843 55.2402L65.7669 55.488L65.799 55.5819C65.8315 55.6718 65.8693 55.7588 65.912 55.8425H60.9553Z" fill="white"/>
<path d="M58.3932 58.4932C58.3704 58.1509 58.0744 57.8918 57.732 57.9147C57.3897 57.9375 57.1307 58.2335 57.1535 58.5759L57.5374 64.3342C57.6082 65.3967 57.6654 66.255 57.7996 66.9285C57.9391 67.6287 58.1763 68.2136 58.6663 68.672C59.1564 69.1305 59.7557 69.3283 60.4637 69.4209C61.1446 69.51 62.0047 69.51 63.0696 69.51H63.7976C64.8625 69.51 65.7227 69.51 66.4036 69.4209C67.1116 69.3283 67.7109 69.1305 68.2009 68.672C68.691 68.2136 68.9282 67.6287 69.0677 66.9285C69.2019 66.255 69.2591 65.3968 69.3299 64.3342L69.7138 58.5759C69.7366 58.2335 69.4776 57.9375 69.1352 57.9147C68.7929 57.8918 68.4969 58.1509 68.474 58.4932L68.0931 64.208C68.0186 65.3244 67.9656 66.1013 67.8492 66.6858C67.7362 67.2527 67.5785 67.5528 67.3521 67.7647C67.1256 67.9766 66.8157 68.1139 66.2425 68.1889C65.6515 68.2662 64.8729 68.2675 63.7539 68.2675H63.1133C61.9944 68.2675 61.2158 68.2662 60.6248 68.1889C60.0516 68.1139 59.7417 67.9766 59.5152 67.7647C59.2887 67.5528 59.1311 67.2527 59.0181 66.6858C58.9017 66.1013 58.8486 65.3244 58.7742 64.208L58.3932 58.4932Z" fill="white"/>
<path d="M61.301 59.9872C61.6424 59.9531 61.9468 60.2021 61.981 60.5436L62.3951 64.6852C62.4293 65.0266 62.1802 65.3311 61.8388 65.3652C61.4974 65.3993 61.193 65.1503 61.1588 64.8089L60.7446 60.6672C60.7105 60.3258 60.9596 60.0213 61.301 59.9872Z" fill="white"/>
<path d="M65.5663 59.9872C65.9077 60.0213 66.1568 60.3258 66.1226 60.6672L65.7085 64.8089C65.6743 65.1503 65.3699 65.3993 65.0285 65.3652C64.6871 65.3311 64.438 65.0266 64.4721 64.6852L64.8863 60.5436C64.9205 60.2021 65.2249 59.9531 65.5663 59.9872Z" fill="white"/>
</svg>
