<svg width="49" height="52" viewBox="0 0 49 52" fill="none" xmlns="http://www.w3.org/2000/svg">
<path d="M24.513 16.0081V28.3441M46.4314 17.9584V34.0303C46.4314 36.662 44.9831 39.1057 42.6416 40.445L28.3028 48.5045C25.9613 49.8203 23.0646 49.8203 20.6989 48.5045L6.36019 40.445C5.20579 39.7935 4.24784 38.8578 3.5826 37.7318C2.91736 36.6058 2.56824 35.3292 2.57032 34.0303V17.9584C2.57032 15.3267 4.01868 12.883 6.36019 11.5437L20.6989 3.48419C23.0405 2.16836 25.9372 2.16836 28.3028 3.48419L42.6416 11.5437C44.9831 12.883 46.4314 15.3032 46.4314 17.9584Z" stroke="#006738" stroke-width="4.11198" stroke-linecap="round" stroke-linejoin="round"/>
<path d="M24.4023 37.0093V37.34" stroke="#006738" stroke-width="3.13294" stroke-linecap="round" stroke-linejoin="round"/>
</svg>
