<svg width="25" height="25" viewBox="0 0 25 25" fill="none" xmlns="http://www.w3.org/2000/svg">
<g clip-path="url(#clip0_9512_2791)">
<path d="M21.9585 18.9748C21.5955 19.8133 21.1659 20.5851 20.6681 21.2947C19.9896 22.2621 19.4341 22.9317 19.006 23.3035C18.3423 23.9139 17.6312 24.2265 16.8697 24.2442C16.3231 24.2442 15.6639 24.0887 14.8965 23.7732C14.1266 23.4591 13.419 23.3035 12.7721 23.3035C12.0936 23.3035 11.3659 23.4591 10.5876 23.7732C9.80804 24.0887 9.18006 24.2531 8.69992 24.2694C7.96973 24.3005 7.2419 23.9791 6.5154 23.3035C6.05171 22.8991 5.47173 22.2058 4.77694 21.2236C4.03148 20.1747 3.41861 18.9585 2.93848 17.5719C2.42427 16.0741 2.1665 14.6238 2.1665 13.2197C2.1665 11.6113 2.51405 10.2241 3.21017 9.06159C3.75727 8.12784 4.4851 7.39127 5.39603 6.85055C6.30696 6.30982 7.29123 6.03428 8.3512 6.01665C8.93118 6.01665 9.69175 6.19605 10.6369 6.54863C11.5794 6.9024 12.1846 7.0818 12.4499 7.0818C12.6482 7.0818 13.3205 6.87203 14.4602 6.45382C15.5379 6.06598 16.4475 5.90539 17.1927 5.96865C19.2119 6.13161 20.7289 6.92758 21.7377 8.36162C19.9319 9.4558 19.0386 10.9883 19.0563 12.9544C19.0726 14.4857 19.6282 15.7601 20.72 16.7719C21.2148 17.2415 21.7674 17.6044 22.3822 17.8622C22.2488 18.2489 22.1081 18.6192 21.9585 18.9748ZM17.3275 0.751621C17.3275 1.9519 16.889 3.07259 16.015 4.10989C14.9602 5.34304 13.6844 6.05561 12.3008 5.94317C12.2832 5.79917 12.273 5.64762 12.273 5.48837C12.273 4.33611 12.7746 3.10296 13.6654 2.09469C14.1101 1.58419 14.6757 1.15971 15.3616 0.8211C16.0461 0.487539 16.6934 0.303073 17.3023 0.271484C17.3201 0.431942 17.3275 0.59241 17.3275 0.751606V0.751621Z" fill="black"/>
</g>
<defs>
<clipPath id="clip0_9512_2791">
<rect width="24" height="24" fill="white" transform="translate(0.166504 0.27124)"/>
</clipPath>
</defs>
</svg>
