<svg width="16" height="17" viewBox="0 0 16 17" fill="none" xmlns="http://www.w3.org/2000/svg">
<mask id="path-1-inside-1_9580_834" fill="white">
<path fill-rule="evenodd" clip-rule="evenodd" d="M7.99981 0.25C4.88748 0.25 2.36441 2.91286 2.36441 6.19767V6.73803C2.36441 7.27286 2.2144 7.7958 1.9333 8.24076L1.09808 9.56298C0.128724 11.0976 0.868755 13.1835 2.55472 13.6688C3.10417 13.827 3.65825 13.9607 4.21555 14.0702L4.21693 14.0741C4.7761 15.6488 6.27063 16.75 7.99981 16.75C9.72898 16.75 11.2235 15.6488 11.7827 14.0741L11.7841 14.0702C12.3414 13.9607 12.8955 13.827 13.445 13.6688C15.1309 13.1835 15.871 11.0976 14.9016 9.56298L14.0664 8.24076C13.7853 7.7958 13.6352 7.27286 13.6352 6.73803V6.19767C13.6352 2.91286 11.1122 0.25 7.99981 0.25ZM10.455 14.2842C8.82404 14.4899 7.17551 14.4898 5.54457 14.2841C6.06154 15.0682 6.96071 15.5988 7.99981 15.5988C9.03884 15.5988 9.93804 15.0682 10.455 14.2842ZM3.45514 6.19767C3.45514 3.54863 5.48987 1.40116 7.99981 1.40116C10.5098 1.40116 12.5445 3.54863 12.5445 6.19767V6.73803C12.5445 7.50018 12.7583 8.24521 13.1588 8.87935L13.994 10.2016C14.5504 11.0824 14.1257 12.2797 13.1579 12.5582C9.7809 13.5303 6.2188 13.5303 2.84171 12.5582C1.87399 12.2797 1.44923 11.0824 2.00563 10.2016L2.84084 8.87935C3.24139 8.24521 3.45514 7.50018 3.45514 6.73803V6.19767Z"/>
</mask>
<path fill-rule="evenodd" clip-rule="evenodd" d="M7.99981 0.25C4.88748 0.25 2.36441 2.91286 2.36441 6.19767V6.73803C2.36441 7.27286 2.2144 7.7958 1.9333 8.24076L1.09808 9.56298C0.128724 11.0976 0.868755 13.1835 2.55472 13.6688C3.10417 13.827 3.65825 13.9607 4.21555 14.0702L4.21693 14.0741C4.7761 15.6488 6.27063 16.75 7.99981 16.75C9.72898 16.75 11.2235 15.6488 11.7827 14.0741L11.7841 14.0702C12.3414 13.9607 12.8955 13.827 13.445 13.6688C15.1309 13.1835 15.871 11.0976 14.9016 9.56298L14.0664 8.24076C13.7853 7.7958 13.6352 7.27286 13.6352 6.73803V6.19767C13.6352 2.91286 11.1122 0.25 7.99981 0.25ZM10.455 14.2842C8.82404 14.4899 7.17551 14.4898 5.54457 14.2841C6.06154 15.0682 6.96071 15.5988 7.99981 15.5988C9.03884 15.5988 9.93804 15.0682 10.455 14.2842ZM3.45514 6.19767C3.45514 3.54863 5.48987 1.40116 7.99981 1.40116C10.5098 1.40116 12.5445 3.54863 12.5445 6.19767V6.73803C12.5445 7.50018 12.7583 8.24521 13.1588 8.87935L13.994 10.2016C14.5504 11.0824 14.1257 12.2797 13.1579 12.5582C9.7809 13.5303 6.2188 13.5303 2.84171 12.5582C1.87399 12.2797 1.44923 11.0824 2.00563 10.2016L2.84084 8.87935C3.24139 8.24521 3.45514 7.50018 3.45514 6.73803V6.19767Z" fill="#F2F2F2"/>
<path d="M1.9333 8.24076L0.936905 7.61129L0.936873 7.61134L1.9333 8.24076ZM1.09808 9.56298L0.101658 8.93357L0.101646 8.93359L1.09808 9.56298ZM2.55472 13.6688L2.88076 12.5362L2.88071 12.5362L2.55472 13.6688ZM4.21555 14.0702L5.32694 13.6779L5.10298 13.0434L4.44265 12.9137L4.21555 14.0702ZM4.21693 14.0741L3.10554 14.4663L3.1063 14.4685L4.21693 14.0741ZM11.7827 14.0741L12.8933 14.4685L12.8939 14.4667L11.7827 14.0741ZM11.7841 14.0702L11.557 12.9137L10.8969 13.0433L10.6728 13.6776L11.7841 14.0702ZM13.445 13.6688L13.119 12.5362L13.1189 12.5362L13.445 13.6688ZM14.9016 9.56298L15.898 8.93358L15.898 8.93357L14.9016 9.56298ZM14.0664 8.24076L15.0628 7.61135L15.0628 7.61127L14.0664 8.24076ZM10.455 14.2842L11.4389 14.933L12.8491 12.7944L10.3075 13.1149L10.455 14.2842ZM5.54457 14.2841L5.69203 13.1148L3.15049 12.7943L4.56065 14.9329L5.54457 14.2841ZM13.1588 8.87935L12.1624 9.5087L12.1624 9.50876L13.1588 8.87935ZM13.994 10.2016L12.9976 10.831L12.9976 10.831L13.994 10.2016ZM13.1579 12.5582L13.4839 13.6908L13.484 13.6908L13.1579 12.5582ZM2.84171 12.5582L2.51567 13.6908L2.51571 13.6908L2.84171 12.5582ZM2.00563 10.2016L3.00204 10.831L3.00206 10.831L2.00563 10.2016ZM2.84084 8.87935L3.83727 9.50876L3.83727 9.50875L2.84084 8.87935ZM7.99981 0.25V-0.928571C4.17749 -0.928571 1.18584 2.32265 1.18584 6.19767H2.36441H3.54298C3.54298 3.50307 5.59746 1.42857 7.99981 1.42857V0.25ZM2.36441 6.19767H1.18584V6.73803H2.36441H3.54298V6.19767H2.36441ZM2.36441 6.73803H1.18584C1.18584 7.05389 1.09696 7.35794 0.936905 7.61129L1.9333 8.24076L2.92969 8.87023C3.33185 8.23365 3.54298 7.49183 3.54298 6.73803H2.36441ZM1.9333 8.24076L0.936873 7.61134L0.101658 8.93357L1.09808 9.56298L2.09451 10.1924L2.92973 8.87017L1.9333 8.24076ZM1.09808 9.56298L0.101646 8.93359C-1.25518 11.0817 -0.268515 14.0826 2.22874 14.8014L2.55472 13.6688L2.88071 12.5362C2.00602 12.2845 1.51262 11.1136 2.09452 10.1924L1.09808 9.56298ZM2.55472 13.6688L2.22869 14.8014C2.8108 14.9689 3.3979 15.1107 3.98845 15.2267L4.21555 14.0702L4.44265 12.9137C3.91861 12.8108 3.39753 12.685 2.88076 12.5362L2.55472 13.6688ZM4.21555 14.0702L3.10416 14.4624L3.10554 14.4663L4.21693 14.0741L5.32832 13.6819L5.32694 13.6779L4.21555 14.0702ZM4.21693 14.0741L3.1063 14.4685C3.82827 16.5016 5.75951 17.9286 7.99981 17.9286V16.75V15.5714C6.78175 15.5714 5.72394 14.796 5.32756 13.6797L4.21693 14.0741ZM7.99981 16.75V17.9286C10.2401 17.9286 12.1713 16.5016 12.8933 14.4685L11.7827 14.0741L10.6721 13.6797C10.2757 14.796 9.21786 15.5714 7.99981 15.5714V16.75ZM11.7827 14.0741L12.8939 14.4667L12.8953 14.4628L11.7841 14.0702L10.6728 13.6776L10.6714 13.6815L11.7827 14.0741ZM11.7841 14.0702L12.0112 15.2267C12.6017 15.1107 13.1889 14.969 13.771 14.8014L13.445 13.6688L13.1189 12.5362C12.6022 12.685 12.081 12.8108 11.557 12.9137L11.7841 14.0702ZM13.445 13.6688L13.7709 14.8014C16.2682 14.0826 17.2549 11.0816 15.898 8.93358L14.9016 9.56298L13.9052 10.1924C14.4871 11.1136 13.9937 12.2845 13.119 12.5362L13.445 13.6688ZM14.9016 9.56298L15.898 8.93357L15.0628 7.61135L14.0664 8.24076L13.0699 8.87017L13.9052 10.1924L14.9016 9.56298ZM14.0664 8.24076L15.0628 7.61127C14.9027 7.35792 14.8138 7.05388 14.8138 6.73803H13.6352H12.4567C12.4567 7.49184 12.6678 8.23367 13.07 8.87025L14.0664 8.24076ZM13.6352 6.73803H14.8138V6.19767H13.6352H12.4567V6.73803H13.6352ZM13.6352 6.19767H14.8138C14.8138 2.32265 11.8222 -0.928571 7.99981 -0.928571V0.25V1.42857C10.4022 1.42857 12.4567 3.50308 12.4567 6.19767H13.6352ZM10.455 14.2842L10.3075 13.1149C8.77454 13.3082 7.22509 13.3082 5.69203 13.1148L5.54457 14.2841L5.39712 15.4534C7.12593 15.6715 8.87355 15.6715 10.6024 15.4535L10.455 14.2842ZM5.54457 14.2841L4.56065 14.9329C5.28676 16.0341 6.54857 16.7774 7.99981 16.7774V15.5988V14.4203C7.37285 14.4203 6.83632 14.1022 6.5285 13.6353L5.54457 14.2841ZM7.99981 15.5988V16.7774C9.45097 16.7774 10.7128 16.0341 11.4389 14.933L10.455 14.2842L9.47106 13.6354C9.16328 14.1022 8.62671 14.4203 7.99981 14.4203V15.5988ZM3.45514 6.19767H4.63371C4.63371 4.13884 6.19986 2.57973 7.99981 2.57973V1.40116V0.222591C4.77988 0.222591 2.27656 2.95842 2.27656 6.19767H3.45514ZM7.99981 1.40116V2.57973C9.79981 2.57973 11.3659 4.13885 11.3659 6.19767H12.5445H13.7231C13.7231 2.95842 11.2198 0.222591 7.99981 0.222591V1.40116ZM12.5445 6.19767H11.3659V6.73803H12.5445H13.7231V6.19767H12.5445ZM12.5445 6.73803H11.3659C11.3659 7.71923 11.6409 8.68308 12.1624 9.5087L13.1588 8.87935L14.1553 8.24999C13.8757 7.80734 13.7231 7.28112 13.7231 6.73803H12.5445ZM13.1588 8.87935L12.1624 9.50876L12.9976 10.831L13.994 10.2016L14.9905 9.57216L14.1552 8.24993L13.1588 8.87935ZM13.994 10.2016L12.9976 10.831C13.0693 10.9446 13.0822 11.0836 13.0368 11.2117C12.9917 11.3388 12.9103 11.4031 12.8319 11.4257L13.1579 12.5582L13.484 13.6908C15.2629 13.1787 15.9344 11.0664 14.9904 9.57212L13.994 10.2016ZM13.1579 12.5582L12.8319 11.4256C9.66791 12.3364 6.33179 12.3364 3.16771 11.4256L2.84171 12.5582L2.51571 13.6908C6.10581 14.7242 9.89389 14.7242 13.4839 13.6908L13.1579 12.5582ZM2.84171 12.5582L3.16775 11.4257C3.0894 11.4031 3.00798 11.3388 2.96287 11.2117C2.91744 11.0836 2.93034 10.9445 3.00204 10.831L2.00563 10.2016L1.00921 9.57214C0.065281 11.0664 0.736785 13.1787 2.51567 13.6908L2.84171 12.5582ZM2.00563 10.2016L3.00206 10.831L3.83727 9.50876L2.84084 8.87935L1.84441 8.24993L1.0092 9.57216L2.00563 10.2016ZM2.84084 8.87935L3.83727 9.50875C4.35881 8.68307 4.63371 7.71919 4.63371 6.73803H3.45514H2.27656C2.27656 7.28116 2.12397 7.80735 1.8444 8.24995L2.84084 8.87935ZM3.45514 6.73803H4.63371V6.19767H3.45514H2.27656V6.73803H3.45514Z" fill="#F2F2F2" mask="url(#path-1-inside-1_9580_834)"/>
</svg>
