<svg width="14" height="13" viewBox="0 0 14 13" fill="none" xmlns="http://www.w3.org/2000/svg">
<path fill-rule="evenodd" clip-rule="evenodd" d="M0.85929 0.842022C0.946614 0.58005 1.22977 0.43847 1.49175 0.525794L1.69467 0.593435C2.11225 0.732613 2.46514 0.850228 2.74263 0.979317C3.03758 1.11653 3.29351 1.2866 3.48758 1.55585C3.68164 1.82509 3.76204 2.12167 3.79895 2.44488C3.81779 2.60994 3.8264 2.79501 3.83033 3.00014H10.9674C12.3374 3.00014 13.0223 3.00014 13.3187 3.44964C13.6152 3.89915 13.3453 4.52876 12.8057 5.78797L12.5199 6.45464C12.268 7.04254 12.142 7.33648 11.8915 7.50164C11.6411 7.6668 11.3213 7.6668 10.6817 7.6668H3.93576C4.00576 8.02672 4.11618 8.23734 4.27297 8.39413C4.45748 8.57864 4.71653 8.69894 5.20571 8.7647C5.70928 8.83241 6.37669 8.83347 7.33363 8.83347H12.0003C12.2764 8.83347 12.5003 9.05733 12.5003 9.33347C12.5003 9.60961 12.2764 9.83347 12.0003 9.83347H7.29705C6.38532 9.83348 5.65044 9.83349 5.07246 9.75579C4.47239 9.67511 3.96714 9.50251 3.56587 9.10124C3.16459 8.69996 2.99199 8.19471 2.91131 7.59464C2.83361 7.01666 2.83362 6.28178 2.83363 5.37005L2.83363 3.58883C2.83363 3.1135 2.83288 2.79899 2.8054 2.55831C2.77938 2.33042 2.73395 2.22049 2.67633 2.14056C2.61872 2.06062 2.5288 1.98276 2.32083 1.88601C2.1012 1.78383 1.80306 1.68366 1.35213 1.53335L1.17552 1.47448C0.913546 1.38715 0.771966 1.10399 0.85929 0.842022ZM5.33363 4.50014C5.05749 4.50014 4.83363 4.72399 4.83363 5.00014C4.83363 5.27628 5.05749 5.50014 5.33363 5.50014H7.33363C7.60977 5.50014 7.83363 5.27628 7.83363 5.00014C7.83363 4.72399 7.60977 4.50014 7.33363 4.50014H5.33363Z" fill="#909198"/>
<path d="M5.00016 11.0002C5.55245 11.0002 6.00016 11.4479 6.00016 12.0002C6.00016 12.5524 5.55245 13.0002 5.00016 13.0002C4.44788 13.0002 4.00016 12.5524 4.00016 12.0002C4.00016 11.4479 4.44788 11.0002 5.00016 11.0002Z" fill="#909198"/>
<path d="M11.0002 11.0002C11.5524 11.0002 12.0002 11.4479 12.0002 12.0002C12.0002 12.5525 11.5524 13.0002 11.0002 13.0002C10.4479 13.0002 10.0002 12.5525 10.0002 12.0002C10.0002 11.4479 10.4479 11.0002 11.0002 11.0002Z" fill="#909198"/>
</svg>
