<svg width="25" height="25" viewBox="0 0 25 25" fill="none" xmlns="http://www.w3.org/2000/svg">
<path d="M3.05078 4.57568C3.11472 3.92562 3.25923 3.48806 3.58582 3.16147C4.17161 2.57568 5.11442 2.57568 7.00004 2.57568C8.88565 2.57568 9.82846 2.57568 10.4142 3.16147C11 3.74725 11 4.69006 11 6.57568C11 8.4613 11 9.40411 10.4142 9.98989C9.82846 10.5757 8.88565 10.5757 7.00004 10.5757C5.11442 10.5757 4.17161 10.5757 3.58582 9.98989C3.27645 9.68052 3.13047 9.27157 3.06158 8.67674" stroke="#909198" stroke-width="1.5" stroke-linecap="round"/>
<path d="M21.9493 15.5757C21.8853 14.9256 21.7408 14.4881 21.4142 14.1615C20.8284 13.5757 19.8856 13.5757 18 13.5757C16.1144 13.5757 15.1716 13.5757 14.5858 14.1615C14 14.7473 14 15.6901 14 17.5757C14 19.4613 14 20.4041 14.5858 20.9899C15.1716 21.5757 16.1144 21.5757 18 21.5757C19.8856 21.5757 20.8284 21.5757 21.4142 20.9899C21.7408 20.6633 21.8853 20.2257 21.9493 19.5757" stroke="#909198" stroke-width="1.5" stroke-linecap="round"/>
<path d="M3 17.5757C3 15.6901 3 14.7473 3.58579 14.1615C4.17157 13.5757 5.11438 13.5757 7 13.5757C8.88562 13.5757 9.82843 13.5757 10.4142 14.1615C11 14.7473 11 15.6901 11 17.5757C11 19.4613 11 20.4041 10.4142 20.9899C9.82843 21.5757 8.88562 21.5757 7 21.5757C5.11438 21.5757 4.17157 21.5757 3.58579 20.9899C3 20.4041 3 19.4613 3 17.5757Z" stroke="#909198" stroke-width="1.5"/>
<path d="M14 6.57568C14 4.69006 14 3.74725 14.5858 3.16147C15.1716 2.57568 16.1144 2.57568 18 2.57568C19.8856 2.57568 20.8284 2.57568 21.4142 3.16147C22 3.74725 22 4.69006 22 6.57568C22 8.4613 22 9.40411 21.4142 9.98989C20.8284 10.5757 19.8856 10.5757 18 10.5757C16.1144 10.5757 15.1716 10.5757 14.5858 9.98989C14 9.40411 14 8.4613 14 6.57568Z" stroke="#909198" stroke-width="1.5"/>
</svg>
