<svg width="20" height="21" viewBox="0 0 20 21" fill="none" xmlns="http://www.w3.org/2000/svg">
<circle cx="7.50016" cy="7.99998" r="1.66667" stroke="#949494" stroke-width="1.5"/>
<path d="M10.8332 13C10.8332 13.9205 10.8332 14.6666 7.49984 14.6666C4.1665 14.6666 4.1665 13.9205 4.1665 13C4.1665 12.0795 5.65889 11.3333 7.49984 11.3333C9.34079 11.3333 10.8332 12.0795 10.8332 13Z" stroke="#949494" stroke-width="1.5"/>
<path d="M11.6665 3.83331H8.33317C5.19047 3.83331 3.61913 3.83331 2.64281 4.80962C1.6665 5.78593 1.6665 7.35728 1.6665 10.5C1.6665 13.6427 1.6665 15.214 2.64281 16.1903C3.61913 17.1666 5.19047 17.1666 8.33317 17.1666H11.6665C14.8092 17.1666 16.3805 17.1666 17.3569 16.1903C18.3332 15.214 18.3332 13.6427 18.3332 10.5L18.1645 7.15398C18.1445 6.75686 18.1345 6.5583 18.0202 6.09357C17.9059 5.62885 17.8942 5.60355 17.8709 5.55295C17.74 5.26925 17.5722 5.02496 17.3569 4.80962C16.3805 3.83331 14.8092 3.83331 11.6665 3.83331Z" stroke="#949494" stroke-width="1.5" stroke-linecap="round"/>
<path d="M15.8335 10.5H12.5002" stroke="#949494" stroke-width="1.5" stroke-linecap="round"/>
<path d="M15.8335 8H11.6668" stroke="#949494" stroke-width="1.5" stroke-linecap="round"/>
<path d="M15.8335 13H13.3335" stroke="#949494" stroke-width="1.5" stroke-linecap="round"/>
</svg>
