<svg width="24" height="25" viewBox="0 0 24 25" fill="none" xmlns="http://www.w3.org/2000/svg">
<mask id="path-1-inside-1_9580_1225" fill="white">
<path fill-rule="evenodd" clip-rule="evenodd" d="M10.7515 7.5C10.7515 7.91421 10.4157 8.25 10.0015 8.25H2.00146C1.58725 8.25 1.25146 7.91421 1.25146 7.5C1.25146 7.08579 1.58725 6.75 2.00146 6.75H10.0015C10.4157 6.75 10.7515 7.08579 10.7515 7.5ZM8.75146 12.5C8.75146 12.9142 8.41567 13.25 8.00146 13.25H2.00146C1.58725 13.25 1.25146 12.9142 1.25146 12.5C1.25146 12.0858 1.58725 11.75 2.00146 11.75H8.00146C8.41567 11.75 8.75146 12.0858 8.75146 12.5ZM10.7515 17.5C10.7515 17.9142 10.4157 18.25 10.0015 18.25H2.00146C1.58725 18.25 1.25146 17.9142 1.25146 17.5C1.25146 17.0858 1.58725 16.75 2.00146 16.75H10.0015C10.4157 16.75 10.7515 17.0858 10.7515 17.5ZM17.0015 8.25C14.6543 8.25 12.7515 10.1528 12.7515 12.5C12.7515 14.8472 14.6543 16.75 17.0015 16.75C19.3487 16.75 21.2515 14.8472 21.2515 12.5C21.2515 10.1528 19.3487 8.25 17.0015 8.25ZM11.2515 12.5C11.2515 9.32436 13.8259 6.75 17.0015 6.75C20.1771 6.75 22.7515 9.32436 22.7515 12.5C22.7515 15.6756 20.1771 18.25 17.0015 18.25C13.8259 18.25 11.2515 15.6756 11.2515 12.5Z"/>
</mask>
<path fill-rule="evenodd" clip-rule="evenodd" d="M10.7515 7.5C10.7515 7.91421 10.4157 8.25 10.0015 8.25H2.00146C1.58725 8.25 1.25146 7.91421 1.25146 7.5C1.25146 7.08579 1.58725 6.75 2.00146 6.75H10.0015C10.4157 6.75 10.7515 7.08579 10.7515 7.5ZM8.75146 12.5C8.75146 12.9142 8.41567 13.25 8.00146 13.25H2.00146C1.58725 13.25 1.25146 12.9142 1.25146 12.5C1.25146 12.0858 1.58725 11.75 2.00146 11.75H8.00146C8.41567 11.75 8.75146 12.0858 8.75146 12.5ZM10.7515 17.5C10.7515 17.9142 10.4157 18.25 10.0015 18.25H2.00146C1.58725 18.25 1.25146 17.9142 1.25146 17.5C1.25146 17.0858 1.58725 16.75 2.00146 16.75H10.0015C10.4157 16.75 10.7515 17.0858 10.7515 17.5ZM17.0015 8.25C14.6543 8.25 12.7515 10.1528 12.7515 12.5C12.7515 14.8472 14.6543 16.75 17.0015 16.75C19.3487 16.75 21.2515 14.8472 21.2515 12.5C21.2515 10.1528 19.3487 8.25 17.0015 8.25ZM11.2515 12.5C11.2515 9.32436 13.8259 6.75 17.0015 6.75C20.1771 6.75 22.7515 9.32436 22.7515 12.5C22.7515 15.6756 20.1771 18.25 17.0015 18.25C13.8259 18.25 11.2515 15.6756 11.2515 12.5Z" fill="#EF8220"/>
<path d="M8.75146 7.5C8.75146 6.80962 9.31111 6.25 10.0015 6.25V10.25C11.5202 10.25 12.7515 9.0188 12.7515 7.5H8.75146ZM10.0015 6.25H2.00146V10.25H10.0015V6.25ZM2.00146 6.25C2.69182 6.25 3.25146 6.80964 3.25146 7.5H-0.748535C-0.748535 9.01878 0.482685 10.25 2.00146 10.25V6.25ZM3.25146 7.5C3.25146 8.19036 2.69182 8.75 2.00146 8.75V4.75C0.482685 4.75 -0.748535 5.98122 -0.748535 7.5H3.25146ZM2.00146 8.75H10.0015V4.75H2.00146V8.75ZM10.0015 8.75C9.31111 8.75 8.75146 8.19038 8.75146 7.5H12.7515C12.7515 5.9812 11.5202 4.75 10.0015 4.75V8.75ZM6.75146 12.5C6.75146 11.8096 7.31109 11.25 8.00146 11.25V15.25C9.52026 15.25 10.7515 14.0188 10.7515 12.5H6.75146ZM8.00146 11.25H2.00146V15.25H8.00146V11.25ZM2.00146 11.25C2.69184 11.25 3.25146 11.8096 3.25146 12.5H-0.748535C-0.748535 14.0188 0.482668 15.25 2.00146 15.25V11.25ZM3.25146 12.5C3.25146 13.1904 2.69184 13.75 2.00146 13.75V9.75C0.482668 9.75 -0.748535 10.9812 -0.748535 12.5H3.25146ZM2.00146 13.75H8.00146V9.75H2.00146V13.75ZM8.00146 13.75C7.31109 13.75 6.75146 13.1904 6.75146 12.5H10.7515C10.7515 10.9812 9.52026 9.75 8.00146 9.75V13.75ZM8.75146 17.5C8.75146 16.8096 9.3111 16.25 10.0015 16.25V20.25C11.5202 20.25 12.7515 19.0188 12.7515 17.5H8.75146ZM10.0015 16.25H2.00146V20.25H10.0015V16.25ZM2.00146 16.25C2.69184 16.25 3.25146 16.8096 3.25146 17.5H-0.748535C-0.748535 19.0188 0.482668 20.25 2.00146 20.25V16.25ZM3.25146 17.5C3.25146 18.1904 2.69184 18.75 2.00146 18.75V14.75C0.482668 14.75 -0.748535 15.9812 -0.748535 17.5H3.25146ZM2.00146 18.75H10.0015V14.75H2.00146V18.75ZM10.0015 18.75C9.3111 18.75 8.75146 18.1904 8.75146 17.5H12.7515C12.7515 15.9812 11.5202 14.75 10.0015 14.75V18.75ZM17.0015 6.25C13.5497 6.25 10.7515 9.04822 10.7515 12.5H14.7515C14.7515 11.2574 15.7588 10.25 17.0015 10.25V6.25ZM10.7515 12.5C10.7515 15.9518 13.5497 18.75 17.0015 18.75V14.75C15.7588 14.75 14.7515 13.7426 14.7515 12.5H10.7515ZM17.0015 18.75C20.4532 18.75 23.2515 15.9518 23.2515 12.5H19.2515C19.2515 13.7426 18.2441 14.75 17.0015 14.75V18.75ZM23.2515 12.5C23.2515 9.04822 20.4532 6.25 17.0015 6.25V10.25C18.2441 10.25 19.2515 11.2574 19.2515 12.5H23.2515ZM13.2515 12.5C13.2515 10.4289 14.9304 8.75 17.0015 8.75V4.75C12.7213 4.75 9.25146 8.21978 9.25146 12.5H13.2515ZM17.0015 8.75C19.0725 8.75 20.7515 10.4289 20.7515 12.5H24.7515C24.7515 8.21978 21.2816 4.75 17.0015 4.75V8.75ZM20.7515 12.5C20.7515 14.571 19.0725 16.25 17.0015 16.25V20.25C21.2816 20.25 24.7515 16.7802 24.7515 12.5H20.7515ZM17.0015 16.25C14.9304 16.25 13.2515 14.571 13.2515 12.5H9.25146C9.25146 16.7802 12.7213 20.25 17.0015 20.25V16.25Z" fill="#EF8220" mask="url(#path-1-inside-1_9580_1225)"/>
<path fill-rule="evenodd" clip-rule="evenodd" d="M17.0015 9.75C17.4157 9.75 17.7515 10.0858 17.7515 10.5V12.0664L18.5683 13.0088C18.8395 13.3218 18.8057 13.7955 18.4927 14.0668C18.1797 14.338 17.706 14.3042 17.4347 13.9912L16.4347 12.8374C16.3166 12.701 16.2515 12.5266 16.2515 12.3462V10.5C16.2515 10.0858 16.5873 9.75 17.0015 9.75Z" fill="#EF8220"/>
</svg>
