<svg width="12" height="14" viewBox="0 0 12 14" fill="none" xmlns="http://www.w3.org/2000/svg">
<path fill-rule="evenodd" clip-rule="evenodd" d="M7.68724 0.873094C8.65738 -0.097021 10.2303 -0.097021 11.2004 0.873094C12.1705 1.84321 12.1705 3.41608 11.2004 4.3862L6.35824 9.22833C6.08533 9.50123 5.91866 9.66791 5.73292 9.81284C5.51409 9.98353 5.27727 10.1299 5.02673 10.2493C4.81407 10.3506 4.59045 10.4252 4.22429 10.5472L2.52014 11.1152L2.111 11.2516C1.74478 11.3737 1.34103 11.2784 1.06806 11.0054C0.795098 10.7324 0.699786 10.3287 0.821859 9.96249L1.52628 7.84915C1.64832 7.48303 1.72284 7.25941 1.82419 7.04676C1.9436 6.79618 2.08995 6.55937 2.26065 6.34053C2.40553 6.15479 2.57221 5.98812 2.84515 5.71521L7.68724 0.873094ZM2.49808 10.1144L1.95905 9.57539L2.42351 8.18199C2.55874 7.77633 2.6146 7.61138 2.68759 7.45822C2.77711 7.27038 2.88683 7.09287 3.01481 6.92874C3.11915 6.79497 3.24171 6.67127 3.54409 6.36884L7.30033 2.61265C7.45533 3.0016 7.71772 3.47103 8.1601 3.9134C8.60242 4.35578 9.0719 4.6181 9.46079 4.77315L5.70461 8.52937C5.40218 8.83173 5.27849 8.95428 5.14471 9.05866C4.98063 9.18663 4.8031 9.29637 4.61525 9.38589C4.46209 9.4589 4.29714 9.51475 3.89146 9.64993L2.49808 10.1144ZM10.2229 4.01104C10.1439 3.99371 10.0452 3.96763 9.93301 3.92869C9.6244 3.82161 9.21843 3.61914 8.83636 3.2371C8.4543 2.85505 8.25185 2.44909 8.1448 2.14046C8.10584 2.02822 8.07976 1.9295 8.06241 1.85054L8.36356 1.5494C8.96019 0.952791 9.92746 0.952791 10.5241 1.5494C11.1206 2.146 11.1206 3.11329 10.5241 3.70989L10.2229 4.01104ZM0.769542 13.3762C0.769542 13.1121 0.98365 12.898 1.24776 12.898H11.4497V13.8544H1.24776C0.98365 13.8544 0.769542 13.6403 0.769542 13.3762Z" fill="#909198"/>
</svg>
