<svg width="20" height="21" viewBox="0 0 20 21" fill="none" xmlns="http://www.w3.org/2000/svg">
<path fill-rule="evenodd" clip-rule="evenodd" d="M13.8822 2.43787C16.6572 2.43787 18.7497 4.70203 18.7497 7.70453V13.4279C18.7497 14.9645 18.2063 16.3529 17.2188 17.3379C16.333 18.2204 15.1838 18.6879 13.8955 18.6879H5.68467C4.39884 18.6879 3.25051 18.2212 2.36384 17.3379C1.37634 16.3529 0.833008 14.9645 0.833008 13.4279V7.70453C0.833008 4.70203 2.92551 2.43787 5.70051 2.43787H13.8822ZM13.8822 3.68787H5.70051C3.60467 3.68787 2.08301 5.37703 2.08301 7.70453V13.4279C2.08301 14.6304 2.49634 15.7045 3.24634 16.452C3.89301 17.0979 4.73717 17.4379 5.68717 17.4379H13.8822C13.8838 17.4362 13.8905 17.4379 13.8955 17.4379C14.8463 17.4379 15.6897 17.0979 16.3363 16.452C17.0872 15.7045 17.4997 14.6304 17.4997 13.4279V7.70453C17.4997 5.37703 15.978 3.68787 13.8822 3.68787ZM15.1955 7.5452C15.413 7.8127 15.3722 8.20603 15.1047 8.42437L11.4013 11.4344C10.933 11.806 10.373 11.9919 9.81384 11.9919C9.25634 11.9919 8.70051 11.8077 8.23551 11.4394L4.49801 8.42603C4.22884 8.20937 4.18717 7.8152 4.40301 7.54687C4.62051 7.27937 5.01384 7.23687 5.28217 7.4527L9.01634 10.4627C9.48551 10.8344 10.1463 10.8344 10.6188 10.4594L14.3155 7.45437C14.5838 7.2352 14.9772 7.27687 15.1955 7.5452Z" fill="#828386"/>
</svg>
