<svg width="20" height="20" viewBox="0 0 20 20" fill="none" xmlns="http://www.w3.org/2000/svg">
<path d="M2.72916 12.7464C2.02088 11.8262 1.66675 11.3662 1.66675 9.99999C1.66675 8.63383 2.02088 8.17377 2.72916 7.2536C4.14338 5.4163 6.51517 3.33333 10.0001 3.33333C13.485 3.33333 15.8567 5.4163 17.271 7.2536C17.9792 8.17377 18.3334 8.63383 18.3334 9.99999C18.3334 11.3662 17.9792 11.8262 17.271 12.7464C15.8567 14.5837 13.485 16.6667 10.0001 16.6667C6.51517 16.6667 4.14338 14.5837 2.72916 12.7464Z" stroke="#3AA04E" stroke-width="1.2" stroke-linecap="round" stroke-linejoin="round"/>
<path d="M12.5 10C12.5 11.3807 11.3807 12.5 10 12.5C8.61925 12.5 7.5 11.3807 7.5 10C7.5 8.61925 8.61925 7.5 10 7.5C11.3807 7.5 12.5 8.61925 12.5 10Z" stroke="#3AA04E" stroke-width="1.2" stroke-linecap="round" stroke-linejoin="round"/>
</svg>
