<svg width="20" height="20" viewBox="0 0 20 20" fill="none" xmlns="http://www.w3.org/2000/svg">
<path d="M2.24113 5.58714C2.10516 5.26987 1.73773 5.1229 1.42047 5.25887C1.1032 5.39485 0.956224 5.76227 1.0922 6.07954L2.24113 5.58714ZM7.53454 11.4481C7.7228 11.1588 7.64087 10.7717 7.35154 10.5834C7.06222 10.3952 6.67507 10.4771 6.48681 10.7664L7.53454 11.4481ZM5.30947 12.5758C5.12121 12.8651 5.20314 13.2523 5.49247 13.4405C5.78179 13.6288 6.16894 13.5468 6.3572 13.2575L5.30947 12.5758ZM18.9078 6.07954C19.0438 5.76227 18.8968 5.39485 18.5795 5.25887C18.2623 5.1229 17.8948 5.26987 17.7588 5.58714L18.9078 6.07954ZM16.6414 10.966C16.8855 11.2101 17.2812 11.2101 17.5252 10.966C17.7693 10.7219 17.7693 10.3262 17.5252 10.0821L16.6414 10.966ZM9.375 13.75C9.375 14.0952 9.65483 14.375 10 14.375C10.3452 14.375 10.625 14.0952 10.625 13.75H9.375ZM13.6428 13.2575C13.8311 13.5468 14.2183 13.6288 14.5075 13.4405C14.7968 13.2523 14.8787 12.8651 14.6905 12.5758L13.6428 13.2575ZM4.60861 9.716C4.85268 9.47192 4.85268 9.07617 4.60861 8.83209C4.36453 8.588 3.9688 8.588 3.72472 8.83209L4.60861 9.716ZM2.47472 10.0821C2.23065 10.3262 2.23065 10.7219 2.47472 10.966C2.7188 11.2101 3.11453 11.2101 3.35861 10.966L2.47472 10.0821ZM10 11.0417C7.31342 11.0417 5.38444 9.70384 4.10383 8.32472C3.46371 7.63536 2.99437 6.94404 2.68549 6.42512C2.53141 6.16625 2.41822 5.95194 2.3445 5.80448C2.30766 5.7308 2.28074 5.67396 2.26356 5.63676C2.25497 5.61817 2.24882 5.6045 2.24509 5.59611C2.24322 5.59192 2.24179 5.58865 2.24113 5.58714C2.24112 5.5871 2.24116 5.5872 2.24113 5.58714C2.24122 5.58733 2.24113 5.58714 1.66667 5.83334C1.0922 6.07954 1.09207 6.07925 1.0922 6.07954C1.09225 6.07966 1.09262 6.0805 1.09272 6.08075C1.09293 6.08125 1.09319 6.08184 1.09348 6.0825C1.09406 6.08385 1.0948 6.08555 1.09569 6.0876C1.09748 6.0917 1.0999 6.09719 1.10294 6.10403C1.10902 6.11771 1.11762 6.1368 1.12877 6.16093C1.15106 6.20919 1.18355 6.27767 1.22647 6.3635C1.31224 6.53505 1.43995 6.77646 1.61138 7.06447C1.95354 7.6393 2.47379 8.40634 3.18783 9.17525C4.61556 10.7128 6.85324 12.2917 10 12.2917V11.0417ZM12.7604 10.5257C11.9517 10.844 11.0347 11.0417 10 11.0417V12.2917C11.1985 12.2917 12.2705 12.0618 13.2183 11.6888L12.7604 10.5257ZM6.48681 10.7664L5.30947 12.5758L6.3572 13.2575L7.53454 11.4481L6.48681 10.7664ZM18.3333 5.83334C17.7588 5.58714 17.7588 5.58725 17.7588 5.58714C17.7589 5.587 17.7593 5.58625 17.7593 5.58634C17.7592 5.5865 17.7589 5.5871 17.7584 5.58814C17.7575 5.5902 17.7558 5.59396 17.7534 5.59937C17.7486 5.6102 17.7408 5.62758 17.7298 5.65105C17.7079 5.69798 17.6738 5.76913 17.6272 5.86056C17.5338 6.04356 17.3908 6.30693 17.1962 6.61934C16.8058 7.24597 16.2136 8.05998 15.4056 8.81834L16.2611 9.72975C17.1686 8.87792 17.8264 7.97156 18.2571 7.28039C18.473 6.9339 18.6333 6.639 18.7407 6.42846C18.7944 6.32313 18.835 6.2387 18.8627 6.17923C18.8766 6.1495 18.8873 6.12599 18.8948 6.1092C18.8985 6.10081 18.9015 6.0941 18.9037 6.08914C18.9048 6.08665 18.9056 6.08461 18.9063 6.083C18.9067 6.0822 18.9069 6.08151 18.9072 6.08094C18.9073 6.08065 18.9077 6.07977 18.9078 6.07954C18.9078 6.0796 18.9079 6.07942 18.9078 6.07954C18.9079 6.0794 18.9078 6.07954 18.3333 5.83334ZM15.4056 8.81834C14.6897 9.49017 13.8116 10.1119 12.7604 10.5257L13.2183 11.6888C14.4462 11.2055 15.4555 10.4858 16.2611 9.72975L15.4056 8.81834ZM15.3914 9.716L16.6414 10.966L17.5252 10.0821L16.2753 8.83209L15.3914 9.716ZM9.375 11.6667V13.75H10.625V11.6667H9.375ZM12.4655 11.4481L13.6428 13.2575L14.6905 12.5758L13.5132 10.7664L12.4655 11.4481ZM3.72472 8.83209L2.47472 10.0821L3.35861 10.966L4.60861 9.716L3.72472 8.83209Z" fill="#3AA04E"/>
</svg>
