<svg width="19" height="19" viewBox="0 0 19 19" fill="none" xmlns="http://www.w3.org/2000/svg">
<g clip-path="url(#clip0_9132_2029)">
<path d="M1.5835 9.50016C1.5835 5.76821 1.5835 3.90223 2.74287 2.74287C3.90223 1.5835 5.76821 1.5835 9.50016 1.5835C13.2321 1.5835 15.0981 1.5835 16.2575 2.74287C17.4168 3.90223 17.4168 5.76821 17.4168 9.50016C17.4168 13.2321 17.4168 15.0981 16.2575 16.2575C15.0981 17.4168 13.2321 17.4168 9.50016 17.4168C5.76821 17.4168 3.90223 17.4168 2.74287 16.2575C1.5835 15.0981 1.5835 13.2321 1.5835 9.50016Z" stroke="#434343" stroke-width="1.1875"/>
<path d="M8.01562 7.02588C8.01562 6.20608 8.6802 5.5415 9.5 5.5415C10.3198 5.5415 10.9844 6.20608 10.9844 7.02588C10.9844 7.57011 10.6915 8.04593 10.2547 8.30432C9.87845 8.52696 9.5 8.8647 9.5 9.30192V10.2915" stroke="#434343" stroke-width="1.1875" stroke-linecap="round"/>
<circle cx="9.50016" cy="12.6667" r="0.791667" fill="#434343"/>
</g>
<defs>
<clipPath id="clip0_9132_2029">
<rect width="19" height="19" fill="white"/>
</clipPath>
</defs>
</svg>
