<svg width="25" height="25" viewBox="0 0 25 25" fill="none" xmlns="http://www.w3.org/2000/svg">
<path d="M10.2315 14.2602C11.9191 14.2602 13.2872 15.6283 13.2872 17.3159C13.2872 19.0035 11.9191 20.3716 10.2315 20.3716C8.54387 20.3716 7.17578 19.0035 7.17578 17.3159C7.17578 15.6283 8.54387 14.2602 10.2315 14.2602Z" stroke="#434343"/>
<path d="M15.3256 4.07476C13.638 4.07476 12.2699 5.44284 12.2699 7.13046C12.2699 8.81808 13.638 10.1862 15.3256 10.1862C17.0133 10.1862 18.3813 8.81808 18.3813 7.13046C18.3813 5.44284 17.0133 4.07476 15.3256 4.07476Z" stroke="#434343"/>
<path d="M11.7595 7.13022L6.66665 7.13022M3.61087 7.13022L2.59229 7.13023" stroke="#434343" stroke-linecap="round"/>
<path d="M13.7974 17.3159L18.8902 17.3159M21.946 17.3159L22.9645 17.3159" stroke="#434343" stroke-linecap="round"/>
<path d="M2.59229 17.3159L6.66656 17.3159" stroke="#434343" stroke-linecap="round"/>
<path d="M22.9625 7.13046L18.8882 7.13046" stroke="#434343" stroke-linecap="round"/>
</svg>
