<svg width="25" height="25" viewBox="0 0 25 25" fill="none" xmlns="http://www.w3.org/2000/svg">
<g clip-path="url(#clip0_9512_2795)">
<path d="M24.2663 12.5477C24.2663 11.7319 24.2001 10.9118 24.059 10.1093H12.7402V14.7303H19.222C18.953 16.2206 18.0888 17.539 16.8233 18.3768V21.3752H20.6903C22.9611 19.2851 24.2663 16.1986 24.2663 12.5477Z" fill="#4285F4"/>
<path d="M12.7401 24.2721C15.9766 24.2721 18.7059 23.2094 20.6945 21.3751L16.8276 18.3768C15.7517 19.1087 14.3627 19.5232 12.7445 19.5232C9.61388 19.5232 6.95946 17.4111 6.00705 14.5715H2.0166V17.6625C4.05371 21.7147 8.2029 24.2721 12.7401 24.2721Z" fill="#34A853"/>
<path d="M6.00277 14.5715C5.50011 13.0812 5.50011 11.4673 6.00277 9.97699V6.88605H2.01674C0.314734 10.2768 0.314734 14.2717 2.01674 17.6625L6.00277 14.5715Z" fill="#FBBC04"/>
<path d="M12.7401 5.0209C14.4509 4.99444 16.1044 5.63821 17.3434 6.81991L20.7695 3.39386C18.6001 1.35675 15.7208 0.236774 12.7401 0.272049C8.2029 0.272049 4.05371 2.82946 2.0166 6.88605L6.00264 9.97699C6.95064 7.13297 9.60947 5.0209 12.7401 5.0209Z" fill="#EA4335"/>
</g>
<defs>
<clipPath id="clip0_9512_2795">
<rect width="24" height="24" fill="white" transform="translate(0.5 0.27124)"/>
</clipPath>
</defs>
</svg>
