<svg width="19" height="16" viewBox="0 0 19 16" fill="none" xmlns="http://www.w3.org/2000/svg">
<path d="M7.09487 13.4711L6.63055 14.0601H6.63055L7.09487 13.4711ZM9.50016 2.8547L8.9598 3.3748C9.10118 3.52169 9.29628 3.6047 9.50016 3.6047C9.70405 3.6047 9.89914 3.52169 10.0405 3.3748L9.50016 2.8547ZM11.9055 13.4711L11.4411 12.8821L11.9055 13.4711ZM7.55918 12.8821C6.35002 11.9289 5.05528 11.0179 4.02647 9.85943C3.02337 8.7299 2.3335 7.42441 2.3335 5.73357H0.833496C0.833496 7.89254 1.73465 9.53772 2.9049 10.8555C4.04944 12.1443 5.51039 13.1771 6.63055 14.0601L7.55918 12.8821ZM2.3335 5.73357C2.3335 4.08925 3.2624 2.71844 4.51774 2.14462C5.7258 1.59242 7.37056 1.72364 8.9598 3.3748L10.0405 2.3346C8.06739 0.284583 5.75382 -0.0696727 3.89414 0.780391C2.08174 1.60884 0.833496 3.52805 0.833496 5.73357H2.3335ZM6.63055 14.0601C7.03464 14.3787 7.47837 14.7265 7.93048 14.9907C8.38235 15.2548 8.91393 15.4792 9.50016 15.4792V13.9792C9.29473 13.9792 9.03464 13.8986 8.68727 13.6956C8.34014 13.4928 7.97706 13.2116 7.55918 12.8821L6.63055 14.0601ZM12.3698 14.0601C13.4899 13.1771 14.9509 12.1443 16.0954 10.8555C17.2657 9.53772 18.1668 7.89254 18.1668 5.73357H16.6668C16.6668 7.42441 15.977 8.7299 14.9739 9.85943C13.945 11.0179 12.6503 11.9289 11.4411 12.8821L12.3698 14.0601ZM18.1668 5.73357C18.1668 3.52805 16.9186 1.60884 15.1062 0.780391C13.2465 -0.0696727 10.9329 0.284583 8.9598 2.3346L10.0405 3.3748C11.6298 1.72364 13.2745 1.59242 14.4826 2.14462C15.7379 2.71844 16.6668 4.08925 16.6668 5.73357H18.1668ZM11.4411 12.8821C11.0233 13.2116 10.6602 13.4928 10.3131 13.6956C9.96569 13.8986 9.7056 13.9792 9.50016 13.9792V15.4792C10.0864 15.4792 10.618 15.2548 11.0698 14.9907C11.522 14.7265 11.9657 14.3787 12.3698 14.0601L11.4411 12.8821Z" fill="#434343"/>
</svg>
