<svg width="20" height="18" viewBox="0 0 20 18" fill="none" xmlns="http://www.w3.org/2000/svg">
<path d="M6.10627 15.2468C3.29819 13.0833 0 10.5422 0 6.1371C0 1.27416 5.50016 -2.17454 10 2.50063L12 4.49928C12.2929 4.79212 12.7678 4.79203 13.0607 4.49908C13.3535 4.20614 13.3534 3.73127 13.0605 3.43843L11.1285 1.50712C15.3685 -1.59691 20 1.67465 20 6.1371C20 10.5422 16.7018 13.0833 13.8937 15.2468C13.6019 15.4717 13.3153 15.6925 13.0383 15.9109C12 16.7294 11 17.5 10 17.5C9 17.5 8 16.7294 6.96173 15.9109C6.68471 15.6925 6.39814 15.4717 6.10627 15.2468Z" fill="#3AA04E"/>
</svg>
