<svg width="24" height="25" viewBox="0 0 24 25" fill="none" xmlns="http://www.w3.org/2000/svg">
<path d="M15.5792 3.88197L17.5792 4.93152C19.7308 6.06066 20.8067 6.62523 21.4041 7.63974C22.0015 8.65425 22.0015 9.91667 22.0015 12.4415V12.5585C22.0015 15.0833 22.0015 16.3458 21.4041 17.3603C20.8067 18.3748 19.7308 18.9393 17.5792 20.0685L15.5792 21.118C13.8236 22.0393 12.9457 22.5 12.0015 22.5C11.0572 22.5 10.1794 22.0393 8.42376 21.118L6.42376 20.0685C4.27209 18.9393 3.19626 18.3748 2.59886 17.3603C2.00146 16.3458 2.00146 15.0833 2.00146 12.5585V12.4415C2.00146 9.91667 2.00146 8.65425 2.59886 7.63974C3.19626 6.62523 4.27209 6.06066 6.42376 4.93152L8.42376 3.88197C10.1794 2.96066 11.0572 2.5 12.0015 2.5C12.9457 2.5 13.8236 2.96066 15.5792 3.88197Z" stroke="#EF8220" stroke-width="1.5" stroke-linecap="round"/>
<path d="M21.0015 8L17.0015 10M12.0015 12.5L3.00146 8M12.0015 12.5V22M12.0015 12.5C12.0015 12.5 14.7441 11.1287 16.5015 10.25C16.6967 10.1524 17.0015 10 17.0015 10M17.0015 10V13.5M17.0015 10L7.50146 5" stroke="#EF8220" stroke-width="1.5" stroke-linecap="round"/>
</svg>
