<svg width="18" height="19" viewBox="0 0 18 19" fill="none" xmlns="http://www.w3.org/2000/svg">
<g clip-path="url(#clip0_9138_16437)">
<path d="M8.47174 14.9391C8.31522 14.9391 8.1587 14.8804 8.0413 14.7826C7.84565 14.6261 7.74783 14.3717 7.80652 14.1174L8.76522 9.22609L8.23696 9.51956C7.90435 9.69565 7.49348 9.59783 7.29783 9.26522C7.12174 8.93261 7.21956 8.52174 7.55217 8.32609L9.37174 7.28913C9.60652 7.15217 9.9 7.17174 10.1152 7.32826C10.3304 7.48478 10.4283 7.7587 10.3891 8.01304L9.3913 13.1L10.213 12.7478C10.5652 12.5913 10.9565 12.7478 11.113 13.1C11.2696 13.4522 11.113 13.8435 10.7609 14L8.74565 14.8804C8.66739 14.9196 8.56956 14.9391 8.47174 14.9391ZM10.4087 5.58696C10.5848 5.41087 10.7022 5.15652 10.7022 4.90217C10.7022 4.64783 10.6043 4.39348 10.4087 4.21739C10.2326 4.0413 9.97826 3.92391 9.72391 3.92391C9.46957 3.92391 9.21522 4.02174 9.03913 4.21739C8.86304 4.39348 8.74565 4.64783 8.74565 4.90217C8.74565 5.15652 8.84348 5.41087 9.03913 5.58696C9.21522 5.76304 9.46957 5.88043 9.72391 5.88043C9.97826 5.88043 10.2326 5.78261 10.4087 5.58696ZM18 9.5C18 4.53043 13.9696 0.5 9 0.5C4.03043 0.5 0 4.53043 0 9.5C0 14.4696 4.03043 18.5 9 18.5C13.9696 18.5 18 14.4696 18 9.5ZM16.4348 9.5C16.4348 13.6087 13.1087 16.9348 9 16.9348C4.8913 16.9348 1.56522 13.6087 1.56522 9.5C1.56522 5.3913 4.8913 2.06522 9 2.06522C13.1087 2.06522 16.4348 5.3913 16.4348 9.5Z" fill="black"/>
</g>
<defs>
<clipPath id="clip0_9138_16437">
<rect width="18" height="18" fill="white" transform="translate(0 0.5)"/>
</clipPath>
</defs>
</svg>
