<svg width="20" height="21" viewBox="0 0 20 21" fill="none" xmlns="http://www.w3.org/2000/svg">
<path d="M1.6665 14.1046C1.6665 11.7476 1.6665 10.5691 2.39874 9.83685C3.13097 9.10461 4.30948 9.10461 6.6665 9.10461H13.3332C15.6902 9.10461 16.8687 9.10461 17.6009 9.83685C18.3332 10.5691 18.3332 11.7476 18.3332 14.1046C18.3332 16.4616 18.3332 17.6401 17.6009 18.3724C16.8687 19.1046 15.6902 19.1046 13.3332 19.1046H6.6665C4.30948 19.1046 3.13097 19.1046 2.39874 18.3724C1.6665 17.6401 1.6665 16.4616 1.6665 14.1046Z" stroke="#949494" stroke-width="1.5"/>
<path d="M5 9.10453V7.43787C5 4.67644 7.23858 2.43787 10 2.43787C12.7614 2.43787 15 4.67644 15 7.43787V9.10453" stroke="#949494" stroke-width="1.5" stroke-linecap="round"/>
<path d="M6.6665 14.1046H6.674M9.99234 14.1046H9.99984M13.3257 14.1046H13.3332" stroke="#949494" stroke-width="2" stroke-linecap="round" stroke-linejoin="round"/>
</svg>
