<svg width="24" height="25" viewBox="0 0 24 25" fill="none" xmlns="http://www.w3.org/2000/svg">
<mask id="path-1-inside-1_9580_2613" fill="white">
<path fill-rule="evenodd" clip-rule="evenodd" d="M17.2522 6.875C17.2522 6.37772 17.0547 5.90081 16.703 5.54917C16.3514 5.19754 15.8745 5 15.3772 5H8.62722C8.38092 4.9999 8.13703 5.04833 7.90945 5.14251C7.68188 5.23669 7.47509 5.37479 7.3009 5.54891C7.12672 5.72303 6.98854 5.92976 6.89426 6.1573C6.79999 6.38483 6.75146 6.62871 6.75146 6.875V7.625C6.75146 7.87123 6.79996 8.11505 6.89419 8.34253C6.98842 8.57002 7.12653 8.77672 7.30064 8.95083C7.65227 9.30246 8.12918 9.5 8.62646 9.5H15.3765C15.6227 9.5 15.8665 9.4515 16.094 9.35727C16.3215 9.26305 16.5282 9.12494 16.7023 8.95083C16.8764 8.77672 17.0145 8.57002 17.1087 8.34253C17.203 8.11505 17.2515 7.87123 17.2515 7.625L17.2522 6.875ZM15.7522 6.875V7.625C15.7522 7.72446 15.7127 7.81984 15.6424 7.89017C15.5721 7.96049 15.4767 8 15.3772 8H8.62722C8.52788 7.9996 8.43273 7.95997 8.36249 7.88973C8.29225 7.81949 8.25261 7.72433 8.25222 7.625V6.875C8.25222 6.77554 8.29172 6.68016 8.36205 6.60983C8.43238 6.53951 8.52776 6.5 8.62722 6.5H15.3772C15.4765 6.5004 15.5717 6.54003 15.6419 6.61027C15.7122 6.68051 15.7518 6.77567 15.7522 6.875Z"/>
</mask>
<path fill-rule="evenodd" clip-rule="evenodd" d="M17.2522 6.875C17.2522 6.37772 17.0547 5.90081 16.703 5.54917C16.3514 5.19754 15.8745 5 15.3772 5H8.62722C8.38092 4.9999 8.13703 5.04833 7.90945 5.14251C7.68188 5.23669 7.47509 5.37479 7.3009 5.54891C7.12672 5.72303 6.98854 5.92976 6.89426 6.1573C6.79999 6.38483 6.75146 6.62871 6.75146 6.875V7.625C6.75146 7.87123 6.79996 8.11505 6.89419 8.34253C6.98842 8.57002 7.12653 8.77672 7.30064 8.95083C7.65227 9.30246 8.12918 9.5 8.62646 9.5H15.3765C15.6227 9.5 15.8665 9.4515 16.094 9.35727C16.3215 9.26305 16.5282 9.12494 16.7023 8.95083C16.8764 8.77672 17.0145 8.57002 17.1087 8.34253C17.203 8.11505 17.2515 7.87123 17.2515 7.625L17.2522 6.875ZM15.7522 6.875V7.625C15.7522 7.72446 15.7127 7.81984 15.6424 7.89017C15.5721 7.96049 15.4767 8 15.3772 8H8.62722C8.52788 7.9996 8.43273 7.95997 8.36249 7.88973C8.29225 7.81949 8.25261 7.72433 8.25222 7.625V6.875C8.25222 6.77554 8.29172 6.68016 8.36205 6.60983C8.43238 6.53951 8.52776 6.5 8.62722 6.5H15.3772C15.4765 6.5004 15.5717 6.54003 15.6419 6.61027C15.7122 6.68051 15.7518 6.77567 15.7522 6.875Z" fill="#EF8220"/>
<path d="M17.2522 6.875L19.2522 6.877V6.875H17.2522ZM15.3772 5V3V5ZM8.62722 5L8.62642 7H8.62722V5ZM6.75146 6.875L8.75146 6.875V6.875L6.75146 6.875ZM6.75146 7.625H4.75146H6.75146ZM8.62646 9.5V7.5V9.5ZM15.3765 9.5V7.5V9.5ZM17.2515 7.625L15.2515 7.623V7.625H17.2515ZM15.7522 6.875L17.7522 6.875L17.7522 6.86705L15.7522 6.875ZM8.62722 8L8.61926 10H8.62722V8ZM8.25222 7.625H6.2522L6.25223 7.63295L8.25222 7.625ZM15.3772 6.5L15.3852 4.5H15.3772V6.5ZM19.2522 6.875C19.2522 5.84729 18.844 4.86166 18.1173 4.13496L15.2888 6.96339C15.2654 6.93995 15.2522 6.90815 15.2522 6.875H19.2522ZM18.1173 4.13496C17.3905 3.40826 16.4049 3 15.3772 3V7C15.3441 7 15.3123 6.98683 15.2888 6.96339L18.1173 4.13496ZM15.3772 3H8.62722V7H15.3772V3ZM8.62802 3C8.11901 2.9998 7.61496 3.09988 7.14464 3.29452L8.67427 6.9905C8.65909 6.99678 8.64283 7.00001 8.62642 7L8.62802 3ZM7.14464 3.29452C6.67432 3.48917 6.24697 3.77457 5.88697 4.13441L8.71484 6.96341C8.70322 6.97501 8.68944 6.98422 8.67427 6.9905L7.14464 3.29452ZM5.88697 4.13441C5.52698 4.49426 5.24141 4.92151 5.04658 5.39174L8.74195 6.92285C8.73566 6.93802 8.72645 6.9518 8.71484 6.96341L5.88697 4.13441ZM5.04658 5.39174C4.85175 5.86198 4.75146 6.366 4.75146 6.875L8.75146 6.875C8.75146 6.89142 8.74823 6.90768 8.74195 6.92285L5.04658 5.39174ZM4.75146 6.875V7.625H8.75146V6.875H4.75146ZM4.75146 7.625C4.75146 8.13387 4.85169 8.63776 5.04643 9.1079L8.74195 7.57716C8.74823 7.59233 8.75146 7.60859 8.75146 7.625H4.75146ZM5.04643 9.1079C5.24117 9.57804 5.5266 10.0052 5.88643 10.365L8.71485 7.53661C8.72646 7.54822 8.73567 7.562 8.74195 7.57716L5.04643 9.1079ZM5.88643 10.365C6.61313 11.0917 7.59875 11.5 8.62646 11.5V7.5C8.65962 7.5 8.69141 7.51317 8.71485 7.53661L5.88643 10.365ZM8.62646 11.5H15.3765V7.5H8.62646V11.5ZM15.3765 11.5C15.8853 11.5 16.3892 11.3998 16.8594 11.205L15.3286 7.50952C15.3438 7.50323 15.3601 7.5 15.3765 7.5V11.5ZM16.8594 11.205C17.3295 11.0103 17.7567 10.7249 18.1165 10.365L15.2881 7.53661C15.2997 7.52501 15.3135 7.5158 15.3286 7.50952L16.8594 11.205ZM18.1165 10.365C18.4763 10.0052 18.7618 9.57803 18.9565 9.1079L15.261 7.57716C15.2673 7.562 15.2765 7.54822 15.2881 7.53661L18.1165 10.365ZM18.9565 9.1079C19.1512 8.63776 19.2515 8.13388 19.2515 7.625H15.2515C15.2515 7.60858 15.2547 7.59233 15.261 7.57716L18.9565 9.1079ZM19.2515 7.627L19.2522 6.877L15.2522 6.873L15.2515 7.623L19.2515 7.627ZM13.7522 6.875V7.625H17.7522V6.875H13.7522ZM13.7522 7.625C13.7522 7.19403 13.9234 6.7807 14.2282 6.47595L17.0566 9.30438C17.502 8.85898 17.7522 8.25488 17.7522 7.625H13.7522ZM14.2282 6.47595C14.5329 6.1712 14.9462 6 15.3772 6V10C16.0071 10 16.6112 9.74978 17.0566 9.30438L14.2282 6.47595ZM15.3772 6H8.62722V10H15.3772V6ZM8.63517 6.00002C9.0635 6.00172 9.47381 6.17263 9.7767 6.47552L6.94827 9.30394C7.39164 9.74731 7.99226 9.99749 8.61926 9.99998L8.63517 6.00002ZM9.7767 6.47552C10.0796 6.7784 10.2505 7.18872 10.2522 7.61705L6.25223 7.63295C6.25472 8.25995 6.5049 8.86057 6.94827 9.30394L9.7767 6.47552ZM10.2522 7.625V6.875H6.25222V7.625H10.2522ZM10.2522 6.875C10.2522 7.30597 10.081 7.7193 9.77626 8.02405L6.94784 5.19562C6.50243 5.64102 6.25222 6.24512 6.25222 6.875H10.2522ZM9.77626 8.02405C9.47151 8.3288 9.05819 8.5 8.62722 8.5V4.5C7.99733 4.5 7.39324 4.75022 6.94784 5.19562L9.77626 8.02405ZM8.62722 8.5H15.3772V4.5H8.62722V8.5ZM15.3693 8.49998C14.9409 8.49828 14.5306 8.32737 14.2277 8.02448L17.0562 5.19606C16.6128 4.75269 16.0122 4.50251 15.3852 4.50002L15.3693 8.49998ZM14.2277 8.02448C13.9248 7.7216 13.7539 7.31129 13.7522 6.88295L17.7522 6.86705C17.7497 6.24005 17.4995 5.63943 17.0562 5.19606L14.2277 8.02448Z" fill="#EF8220" mask="url(#path-1-inside-1_9580_2613)"/>
<path fill-rule="evenodd" clip-rule="evenodd" d="M10.5015 5.75V3.875C10.5015 3.77525 10.5412 3.68 10.611 3.6095C10.6816 3.53949 10.777 3.50015 10.8765 3.5H13.1265C13.2262 3.5 13.3215 3.53975 13.392 3.6095C13.462 3.68015 13.5013 3.77554 13.5015 3.875V5.75C13.5015 5.94891 13.5805 6.13968 13.7211 6.28033C13.8618 6.42098 14.0526 6.5 14.2515 6.5C14.4504 6.5 14.6411 6.42098 14.7818 6.28033C14.9224 6.13968 15.0015 5.94891 15.0015 5.75V3.875C15.0015 3.37772 14.8039 2.90081 14.4523 2.54917C14.1007 2.19754 13.6237 2 13.1265 2H10.8765C10.3792 2 9.90227 2.19754 9.55064 2.54917C9.19901 2.90081 9.00146 3.37772 9.00146 3.875V5.75C9.00146 5.94891 9.08048 6.13968 9.22113 6.28033C9.36179 6.42098 9.55255 6.5 9.75146 6.5C9.95038 6.5 10.1411 6.42098 10.2818 6.28033C10.4224 6.13968 10.5015 5.94891 10.5015 5.75Z" fill="#EF8220"/>
<path fill-rule="evenodd" clip-rule="evenodd" d="M19.4625 7.99925L19.5015 8H19.503C19.917 8 20.2522 8.33525 20.2522 8.7485V20.75C20.2522 20.9487 20.1727 21.14 20.0317 21.2803C19.9622 21.35 19.8795 21.4053 19.7885 21.443C19.6975 21.4807 19.6 21.5001 19.5015 21.5H4.50147C4.40296 21.5001 4.30541 21.4807 4.21442 21.443C4.12342 21.4053 4.04077 21.35 3.97122 21.2803C3.90147 21.2107 3.84615 21.128 3.80844 21.037C3.77072 20.9461 3.75136 20.8485 3.75147 20.75V8.75C3.75117 8.65143 3.77036 8.55376 3.80795 8.46264C3.84554 8.37151 3.90077 8.28871 3.97047 8.21901C4.04018 8.14931 4.12297 8.09407 4.2141 8.05649C4.30523 8.0189 4.40289 7.9997 4.50147 8C4.50147 8 4.49247 7.07 4.50147 6.5C4.20594 6.4998 3.91327 6.55787 3.64019 6.67087C3.36712 6.78387 3.11901 6.9496 2.91004 7.15857C2.70106 7.36754 2.53534 7.61566 2.42233 7.88873C2.30933 8.1618 2.25127 8.45447 2.25147 8.75V20.75C2.25147 21.347 2.48847 21.9193 2.91147 22.3407C3.12021 22.5497 3.36807 22.7154 3.64089 22.8285C3.9137 22.9417 4.20613 22.9999 4.50147 23H19.5015C19.797 23.0002 20.0897 22.9421 20.3627 22.8291C20.6358 22.7161 20.8839 22.5504 21.0929 22.3414C21.3019 22.1325 21.4676 21.8843 21.5806 21.6113C21.6936 21.3382 21.7517 21.0455 21.7515 20.75V8.7485C21.7515 8.15216 21.5146 7.58025 21.0929 7.15857C20.6712 6.7369 20.0993 6.5 19.503 6.5C19.128 6.5 19.0357 6.71225 19.065 6.977C18.8752 6.77525 18.7515 6.998 18.7515 7.25C18.7515 7.65125 19.0672 7.979 19.464 7.99925H19.4625Z" fill="#EF8220"/>
<path fill-rule="evenodd" clip-rule="evenodd" d="M6.75146 13.25H17.2515C17.4504 13.25 17.6411 13.171 17.7818 13.0303C17.9224 12.8897 18.0015 12.6989 18.0015 12.5C18.0015 12.3011 17.9224 12.1103 17.7818 11.9697C17.6411 11.829 17.4504 11.75 17.2515 11.75H6.75146C6.55255 11.75 6.36179 11.829 6.22113 11.9697C6.08048 12.1103 6.00146 12.3011 6.00146 12.5C6.00146 12.6989 6.08048 12.8897 6.22113 13.0303C6.36179 13.171 6.55255 13.25 6.75146 13.25ZM6.75146 16.25H17.2515C17.4504 16.25 17.6411 16.171 17.7818 16.0303C17.9224 15.8897 18.0015 15.6989 18.0015 15.5C18.0015 15.3011 17.9224 15.1103 17.7818 14.9697C17.6411 14.829 17.4504 14.75 17.2515 14.75H6.75146C6.55255 14.75 6.36179 14.829 6.22113 14.9697C6.08048 15.1103 6.00146 15.3011 6.00146 15.5C6.00146 15.6989 6.08048 15.8897 6.22113 16.0303C6.36179 16.171 6.55255 16.25 6.75146 16.25ZM6.75146 19.25H17.2515C17.4504 19.25 17.6411 19.171 17.7818 19.0303C17.9224 18.8897 18.0015 18.6989 18.0015 18.5C18.0015 18.3011 17.9224 18.1103 17.7818 17.9697C17.6411 17.829 17.4504 17.75 17.2515 17.75H6.75146C6.55255 17.75 6.36179 17.829 6.22113 17.9697C6.08048 18.1103 6.00146 18.3011 6.00146 18.5C6.00146 18.6989 6.08048 18.8897 6.22113 19.0303C6.36179 19.171 6.55255 19.25 6.75146 19.25Z" fill="#EF8220"/>
<path d="M4.50146 8C4.91568 8 5.25146 7.66421 5.25146 7.25C5.25146 6.83579 4.91568 6.5 4.50146 6.5C4.08725 6.5 3.75146 6.83579 3.75146 7.25C3.75146 7.66421 4.08725 8 4.50146 8Z" fill="#EF8220"/>
<path d="M19.5015 8C19.9157 8 20.2515 7.66421 20.2515 7.25C20.2515 6.83579 19.9157 6.5 19.5015 6.5C19.0873 6.5 18.7515 6.83579 18.7515 7.25C18.7515 7.66421 19.0873 8 19.5015 8Z" fill="#EF8220"/>
</svg>
