<svg width="16" height="13" viewBox="0 0 16 13" fill="none" xmlns="http://www.w3.org/2000/svg">
<path fill-rule="evenodd" clip-rule="evenodd" d="M2.75 0.5C2.15326 0.5 1.58097 0.737053 1.15901 1.15901C0.737053 1.58097 0.5 2.15326 0.5 2.75V10.25C0.5 10.8467 0.737053 11.419 1.15901 11.841C1.58097 12.2629 2.15326 12.5 2.75 12.5H13.25C13.8467 12.5 14.419 12.2629 14.841 11.841C15.2629 11.419 15.5 10.8467 15.5 10.25V2.75C15.5 2.15326 15.2629 1.58097 14.841 1.15901C14.419 0.737053 13.8467 0.5 13.25 0.5H2.75ZM13.25 1.625H2.75C2.45163 1.625 2.16548 1.74353 1.9545 1.9545C1.74353 2.16548 1.625 2.45163 1.625 2.75V3.6875H14.375V2.75C14.375 2.45163 14.2565 2.16548 14.0455 1.9545C13.8345 1.74353 13.5484 1.625 13.25 1.625ZM1.625 10.25V4.8125H14.375V10.25C14.375 10.5484 14.2565 10.8345 14.0455 11.0455C13.8345 11.2565 13.5484 11.375 13.25 11.375H2.75C2.45163 11.375 2.16548 11.2565 1.9545 11.0455C1.74353 10.8345 1.625 10.5484 1.625 10.25Z" fill="black"/>
</svg>
