<svg width="20" height="21" viewBox="0 0 20 21" fill="none" xmlns="http://www.w3.org/2000/svg">
<path d="M13.4169 11.6326L12.8881 11.1008L13.4169 11.6326ZM13.7965 11.2552L14.3253 11.7871L13.7965 11.2552ZM15.8104 10.9913L15.4522 11.6502L15.8104 10.9913ZM17.4024 11.8567L17.0442 12.5157L17.4024 11.8567ZM17.8511 14.5692L18.3799 15.1011L17.8511 14.5692ZM16.6673 15.7463L16.1385 15.2144L16.6673 15.7463ZM15.5632 16.3044L15.6329 17.0511L15.5632 16.3044ZM7.34581 12.7722L7.87463 12.2404L7.34581 12.7722ZM3.33541 5.28809L2.58662 5.33064L2.58662 5.33064L3.33541 5.28809ZM8.73094 6.4979L9.25976 7.02974H9.25976L8.73094 6.4979ZM8.86154 4.28632L9.46194 3.83685V3.83685L8.86154 4.28632ZM7.81072 2.88265L7.21033 3.33212L7.21033 3.33212L7.81072 2.88265ZM5.21755 2.64577L5.74637 3.17761L5.21755 2.64577ZM3.90955 3.94635L3.38073 3.41451L3.38073 3.41451L3.90955 3.94635ZM10.0523 10.0811L10.5811 9.54928L10.0523 10.0811ZM13.9458 12.1644L14.3253 11.7871L13.2677 10.7234L12.8881 11.1008L13.9458 12.1644ZM15.4522 11.6502L17.0442 12.5157L17.7606 11.1978L16.1686 10.3323L15.4522 11.6502ZM17.3223 14.0374L16.1385 15.2144L17.1961 16.2781L18.3799 15.1011L17.3223 14.0374ZM15.4936 15.5576C14.3153 15.6674 11.2283 15.575 7.87463 12.2404L6.81699 13.3041C10.5413 17.0072 14.0954 17.1945 15.6329 17.0511L15.4936 15.5576ZM7.87463 12.2404C4.67069 9.05464 4.14901 6.38576 4.08421 5.24553L2.58662 5.33064C2.67207 6.8341 3.34651 9.85329 6.81699 13.3041L7.87463 12.2404ZM9.02075 7.2674L9.25976 7.02974L8.20212 5.96606L7.96311 6.20372L9.02075 7.2674ZM9.46194 3.83685L8.41112 2.43318L7.21033 3.33212L8.26115 4.73579L9.46194 3.83685ZM4.68873 2.11393L3.38073 3.41451L4.43837 4.47818L5.74637 3.17761L4.68873 2.11393ZM8.49193 6.73556C7.96311 6.20372 7.9624 6.20443 7.96168 6.20514C7.96144 6.20539 7.96072 6.20611 7.96023 6.2066C7.95926 6.20758 7.95827 6.20858 7.95726 6.2096C7.95525 6.21164 7.95319 6.21376 7.95107 6.21596C7.94683 6.22036 7.94237 6.22509 7.93771 6.23015C7.9284 6.24026 7.91828 6.25171 7.90754 6.26452C7.88607 6.29014 7.86208 6.32129 7.83707 6.3582C7.78691 6.43223 7.73305 6.52893 7.68761 6.64954C7.5947 6.89613 7.54711 7.2157 7.60753 7.60512C7.72531 8.36433 8.24323 9.33999 9.52346 10.613L10.5811 9.54928C9.39882 8.37372 9.13656 7.67659 9.0898 7.37516C9.07851 7.30238 9.07965 7.25272 9.08261 7.22324C9.08555 7.19388 9.09075 7.17983 9.09128 7.17841C9.09194 7.17666 9.08932 7.18416 9.07888 7.19957C9.07373 7.20717 9.06671 7.21665 9.05725 7.22794C9.05252 7.23358 9.04717 7.23969 9.04112 7.24626C9.03809 7.24955 9.03489 7.25295 9.0315 7.25647C9.0298 7.25824 9.02806 7.26003 9.02627 7.26185C9.02537 7.26276 9.02446 7.26367 9.02354 7.2646C9.02308 7.26506 9.02238 7.26576 9.02215 7.26599C9.02145 7.26669 9.02075 7.2674 8.49193 6.73556ZM9.52346 10.613C10.8042 11.8864 11.7842 12.3998 12.5443 12.5164C12.9338 12.5761 13.253 12.5291 13.4993 12.4373C13.6198 12.3924 13.7166 12.3392 13.7908 12.2895C13.8277 12.2647 13.859 12.2409 13.8847 12.2196C13.8975 12.209 13.909 12.1989 13.9192 12.1897C13.9243 12.1851 13.929 12.1806 13.9335 12.1764C13.9357 12.1743 13.9378 12.1722 13.9398 12.1703C13.9409 12.1693 13.9419 12.1683 13.9429 12.1673C13.9434 12.1668 13.9441 12.1661 13.9443 12.1659C13.945 12.1651 13.9458 12.1644 13.4169 11.6326C12.8881 11.1008 12.8888 11.1001 12.8895 11.0994C12.8898 11.0991 12.8905 11.0984 12.8909 11.098C12.8919 11.0971 12.8928 11.0962 12.8937 11.0953C12.8955 11.0935 12.8973 11.0918 12.8991 11.0901C12.9026 11.0867 12.9061 11.0835 12.9094 11.0805C12.916 11.0745 12.9221 11.0692 12.9277 11.0645C12.939 11.0552 12.9485 11.0483 12.956 11.0432C12.9712 11.0331 12.9782 11.0307 12.9757 11.0317C12.9735 11.0325 12.9584 11.0379 12.9277 11.041C12.897 11.044 12.8459 11.0451 12.7718 11.0337C12.4652 10.9867 11.7629 10.7243 10.5811 9.54928L9.52346 10.613ZM8.41112 2.43318C7.51896 1.24145 5.76031 1.04844 4.68873 2.11393L5.74637 3.17761C6.1323 2.79387 6.83086 2.82524 7.21033 3.33212L8.41112 2.43318ZM4.08421 5.24553C4.07041 5.00275 4.18072 4.73437 4.43837 4.47818L3.38073 3.41451C2.91568 3.87692 2.54169 4.54006 2.58662 5.33064L4.08421 5.24553ZM16.1385 15.2144C15.9238 15.4279 15.704 15.538 15.4936 15.5576L15.6329 17.0511C16.2815 16.9907 16.8087 16.6633 17.1961 16.2781L16.1385 15.2144ZM9.25976 7.02974C10.1265 6.16791 10.1886 4.80749 9.46194 3.83685L8.26115 4.73579C8.5619 5.13752 8.51297 5.65699 8.20212 5.96606L9.25976 7.02974ZM17.0442 12.5157C17.6576 12.8491 17.7399 13.6221 17.3223 14.0374L18.3799 15.1011C19.5604 13.9273 19.1921 11.976 17.7606 11.1978L17.0442 12.5157ZM14.3253 11.7871C14.6044 11.5096 15.0589 11.4364 15.4522 11.6502L16.1686 10.3323C15.2192 9.81625 14.0379 9.95748 13.2677 10.7234L14.3253 11.7871Z" fill="#828386"/>
</svg>
