<svg width="16" height="18" viewBox="0 0 16 18" fill="none" xmlns="http://www.w3.org/2000/svg">
<path d="M14.4426 16.5C14.4426 13.5975 11.5551 11.25 8.00012 11.25C4.44512 11.25 1.55762 13.5975 1.55762 16.5M8.00012 9C8.99468 9 9.94851 8.60491 10.6518 7.90165C11.355 7.19839 11.7501 6.24456 11.7501 5.25C11.7501 4.25544 11.355 3.30161 10.6518 2.59835C9.94851 1.89509 8.99468 1.5 8.00012 1.5C7.00556 1.5 6.05173 1.89509 5.34847 2.59835C4.64521 3.30161 4.25012 4.25544 4.25012 5.25C4.25012 6.24456 4.64521 7.19839 5.34847 7.90165C6.05173 8.60491 7.00556 9 8.00012 9V9Z" stroke="#434343" stroke-width="1.5" stroke-linecap="round" stroke-linejoin="round"/>
</svg>
