<svg width="25" height="25" viewBox="0 0 25 25" fill="none" xmlns="http://www.w3.org/2000/svg">
<path d="M11.5 20.5C16.4706 20.5 20.5 16.4706 20.5 11.5C20.5 6.52944 16.4706 2.5 11.5 2.5C6.52944 2.5 2.5 6.52944 2.5 11.5C2.5 16.4706 6.52944 20.5 11.5 20.5Z" fill="#D9D9D9"/>
<path d="M21.2051 22.5C20.8733 22.5 20.5415 22.3709 20.3018 22.1311L16.8733 18.6998C16.3756 18.2018 16.3756 17.3901 16.8733 16.8736C17.371 16.3755 18.182 16.3755 18.6982 16.8736L22.1267 20.3048C22.6244 20.8028 22.6244 21.6145 22.1267 22.1311C21.8687 22.3709 21.5369 22.5 21.2051 22.5Z" fill="#D9D9D9"/>
</svg>
