<svg width="20" height="20" viewBox="0 0 20 20" fill="none" xmlns="http://www.w3.org/2000/svg">
<path d="M18.3332 18.3334L16.6665 16.6667M9.58317 17.5C10.6228 17.5 11.6523 17.2953 12.6127 16.8974C13.5732 16.4996 14.446 15.9164 15.1811 15.1813C15.9162 14.4462 16.4994 13.5734 16.8972 12.6129C17.2951 11.6524 17.4998 10.623 17.4998 9.58335C17.4998 8.54372 17.2951 7.51427 16.8972 6.55378C16.4994 5.59328 15.9162 4.72056 15.1811 3.98543C14.446 3.25029 13.5732 2.66716 12.6127 2.26931C11.6523 1.87146 10.6228 1.66669 9.58317 1.66669C7.48354 1.66669 5.4699 2.50076 3.98524 3.98543C2.50058 5.47009 1.6665 7.48372 1.6665 9.58335C1.6665 11.683 2.50058 13.6966 3.98524 15.1813C5.4699 16.6659 7.48354 17.5 9.58317 17.5Z" stroke="#828386" stroke-linecap="round" stroke-linejoin="round"/>
</svg>
