<svg width="18" height="19" viewBox="0 0 18 19" fill="none" xmlns="http://www.w3.org/2000/svg">
<path d="M6.75 9.5C6.75 10.5355 5.91053 11.375 4.875 11.375C3.83947 11.375 3 10.5355 3 9.5C3 8.46447 3.83947 7.625 4.875 7.625C5.91053 7.625 6.75 8.46447 6.75 9.5Z" stroke="#1C274C" stroke-width="1.125"/>
<path d="M10.5 5.375L6.75 8" stroke="#1C274C" stroke-width="1.125" stroke-linecap="round"/>
<path d="M10.5 13.625L6.75 11" stroke="#1C274C" stroke-width="1.125" stroke-linecap="round"/>
<path d="M14.25 14.375C14.25 15.4105 13.4105 16.25 12.375 16.25C11.3395 16.25 10.5 15.4105 10.5 14.375C10.5 13.3395 11.3395 12.5 12.375 12.5C13.4105 12.5 14.25 13.3395 14.25 14.375Z" stroke="#1C274C" stroke-width="1.125"/>
<path d="M14.25 4.625C14.25 5.66053 13.4105 6.5 12.375 6.5C11.3395 6.5 10.5 5.66053 10.5 4.625C10.5 3.58947 11.3395 2.75 12.375 2.75C13.4105 2.75 14.25 3.58947 14.25 4.625Z" stroke="#1C274C" stroke-width="1.125"/>
</svg>
