<svg width="24" height="25" viewBox="0 0 24 25" fill="none" xmlns="http://www.w3.org/2000/svg">
<g clip-path="url(#clip0_9580_560)">
<mask id="path-1-inside-1_9580_560" fill="white">
<path d="M17.3087 17.8555H9.12124C8.89392 17.8555 8.6759 17.7652 8.51515 17.6044C8.35441 17.4437 8.2641 17.2257 8.2641 16.9983C8.2641 16.771 8.35441 16.553 8.51515 16.3922C8.6759 16.2315 8.89392 16.1412 9.12124 16.1412H17.3087C17.536 16.1412 17.754 16.2315 17.9148 16.3922C18.0755 16.553 18.1658 16.771 18.1658 16.9983C18.1658 17.2257 18.0755 17.4437 17.9148 17.6044C17.754 17.7652 17.536 17.8555 17.3087 17.8555ZM22.0264 17.8555H21.8207C21.5933 17.8555 21.3753 17.7652 21.2146 17.6044C21.0538 17.4437 20.9635 17.2257 20.9635 16.9983C20.9635 16.771 21.0538 16.553 21.2146 16.3922C21.3753 16.2315 21.5933 16.1412 21.8207 16.1412H22.0264C22.0828 16.1421 22.1388 16.1318 22.1912 16.1108C22.2436 16.0899 22.2912 16.0587 22.3315 16.0191C22.3717 15.9796 22.4036 15.9324 22.4254 15.8803C22.4472 15.8283 22.4584 15.7725 22.4584 15.7161V12.7743C22.4581 12.6779 22.4255 12.5843 22.3659 12.5085C22.3062 12.4327 22.2229 12.379 22.1292 12.3561H17.0755C16.5075 12.3561 15.9626 12.1309 15.5603 11.7298C15.158 11.3288 14.9311 10.7847 14.9292 10.2166V5.62234C14.9302 5.56625 14.9198 5.51055 14.8988 5.45855C14.8777 5.40655 14.8465 5.35932 14.8068 5.31965C14.7671 5.27999 14.7199 5.24871 14.6679 5.22767C14.6159 5.20663 14.5602 5.19627 14.5041 5.1972H4.40353C4.1762 5.1972 3.95818 5.10689 3.79744 4.94614C3.63669 4.7854 3.54639 4.56738 3.54639 4.34005C3.54639 4.11272 3.63669 3.89471 3.79744 3.73396C3.95818 3.57322 4.1762 3.48291 4.40353 3.48291H14.5041C14.7851 3.48291 15.0633 3.53825 15.3228 3.64576C15.5824 3.75328 15.8182 3.91087 16.0169 4.10953C16.2156 4.3082 16.3732 4.54405 16.4807 4.80362C16.5882 5.06318 16.6435 5.34139 16.6435 5.62234V10.2029C16.6435 10.2593 16.6547 10.3152 16.6765 10.3672C16.6983 10.4192 16.7303 10.4664 16.7705 10.506C16.8107 10.5456 16.8584 10.5767 16.9107 10.5977C16.9631 10.6186 17.0191 10.629 17.0755 10.6281H22.0264C22.1829 10.6301 22.339 10.6462 22.4927 10.6761L22.6435 10.7241C23.0875 10.8539 23.4771 11.125 23.753 11.4962C24.029 11.8675 24.1763 12.3186 24.1727 12.7812V15.7229C24.1691 16.2898 23.9413 16.8322 23.5392 17.2317C23.1371 17.6313 22.5932 17.8555 22.0264 17.8555Z"/>
</mask>
<path d="M17.3087 17.8555H9.12124C8.89392 17.8555 8.6759 17.7652 8.51515 17.6044C8.35441 17.4437 8.2641 17.2257 8.2641 16.9983C8.2641 16.771 8.35441 16.553 8.51515 16.3922C8.6759 16.2315 8.89392 16.1412 9.12124 16.1412H17.3087C17.536 16.1412 17.754 16.2315 17.9148 16.3922C18.0755 16.553 18.1658 16.771 18.1658 16.9983C18.1658 17.2257 18.0755 17.4437 17.9148 17.6044C17.754 17.7652 17.536 17.8555 17.3087 17.8555ZM22.0264 17.8555H21.8207C21.5933 17.8555 21.3753 17.7652 21.2146 17.6044C21.0538 17.4437 20.9635 17.2257 20.9635 16.9983C20.9635 16.771 21.0538 16.553 21.2146 16.3922C21.3753 16.2315 21.5933 16.1412 21.8207 16.1412H22.0264C22.0828 16.1421 22.1388 16.1318 22.1912 16.1108C22.2436 16.0899 22.2912 16.0587 22.3315 16.0191C22.3717 15.9796 22.4036 15.9324 22.4254 15.8803C22.4472 15.8283 22.4584 15.7725 22.4584 15.7161V12.7743C22.4581 12.6779 22.4255 12.5843 22.3659 12.5085C22.3062 12.4327 22.2229 12.379 22.1292 12.3561H17.0755C16.5075 12.3561 15.9626 12.1309 15.5603 11.7298C15.158 11.3288 14.9311 10.7847 14.9292 10.2166V5.62234C14.9302 5.56625 14.9198 5.51055 14.8988 5.45855C14.8777 5.40655 14.8465 5.35932 14.8068 5.31965C14.7671 5.27999 14.7199 5.24871 14.6679 5.22767C14.6159 5.20663 14.5602 5.19627 14.5041 5.1972H4.40353C4.1762 5.1972 3.95818 5.10689 3.79744 4.94614C3.63669 4.7854 3.54639 4.56738 3.54639 4.34005C3.54639 4.11272 3.63669 3.89471 3.79744 3.73396C3.95818 3.57322 4.1762 3.48291 4.40353 3.48291H14.5041C14.7851 3.48291 15.0633 3.53825 15.3228 3.64576C15.5824 3.75328 15.8182 3.91087 16.0169 4.10953C16.2156 4.3082 16.3732 4.54405 16.4807 4.80362C16.5882 5.06318 16.6435 5.34139 16.6435 5.62234V10.2029C16.6435 10.2593 16.6547 10.3152 16.6765 10.3672C16.6983 10.4192 16.7303 10.4664 16.7705 10.506C16.8107 10.5456 16.8584 10.5767 16.9107 10.5977C16.9631 10.6186 17.0191 10.629 17.0755 10.6281H22.0264C22.1829 10.6301 22.339 10.6462 22.4927 10.6761L22.6435 10.7241C23.0875 10.8539 23.4771 11.125 23.753 11.4962C24.029 11.8675 24.1763 12.3186 24.1727 12.7812V15.7229C24.1691 16.2898 23.9413 16.8322 23.5392 17.2317C23.1371 17.6313 22.5932 17.8555 22.0264 17.8555Z" fill="#EF8220"/>
<path d="M9.12124 17.8555V15.8555V17.8555ZM17.3087 16.1412V14.1412V16.1412ZM22.0264 17.8555L22.0264 15.8555H22.0264V17.8555ZM21.8207 17.8555V15.8555V17.8555ZM22.0264 16.1412L22.0586 14.1415L22.0425 14.1412H22.0264V16.1412ZM22.4584 15.7161H20.4584V15.7163L22.4584 15.7161ZM22.4584 12.7743H24.4584L24.4584 12.7684L22.4584 12.7743ZM22.1292 12.3561L22.6054 10.4136L22.3708 10.3561H22.1292V12.3561ZM17.0755 12.3561V10.3561H17.0755L17.0755 12.3561ZM14.9292 10.2166H12.9292L12.9293 10.223L14.9292 10.2166ZM14.9292 5.62234L12.9295 5.58928L12.9292 5.60581V5.62234H14.9292ZM14.5041 5.1972V7.1972H14.5206L14.5372 7.19692L14.5041 5.1972ZM4.40353 5.1972V3.1972V5.1972ZM4.40353 3.48291V5.48291V3.48291ZM14.5041 3.48291V5.48291V3.48291ZM16.6435 10.2029L18.6435 10.2032V10.2029H16.6435ZM17.0755 10.6281V8.62805H17.0594L17.0433 8.62831L17.0755 10.6281ZM22.0264 10.6281L22.0524 8.62822L22.0394 8.62805H22.0264V10.6281ZM22.4927 10.6761L23.0991 8.7702L22.9885 8.73503L22.8747 8.71287L22.4927 10.6761ZM22.6435 10.7241L22.0371 12.6299L22.0596 12.6371L22.0823 12.6437L22.6435 10.7241ZM24.1727 12.7812L22.1727 12.7654L22.1727 12.7733V12.7812H24.1727ZM24.1727 15.7229L26.1727 15.7357V15.7229H24.1727ZM17.3087 15.8555H9.12124V19.8555H17.3087V15.8555ZM9.12124 15.8555C9.42435 15.8555 9.71504 15.9759 9.92937 16.1902L7.10094 19.0186C7.63676 19.5545 8.36349 19.8555 9.12124 19.8555V15.8555ZM9.92937 16.1902C10.1437 16.4045 10.2641 16.6952 10.2641 16.9983H6.2641C6.2641 17.7561 6.56512 18.4828 7.10094 19.0186L9.92937 16.1902ZM10.2641 16.9983C10.2641 17.3014 10.1437 17.5921 9.92937 17.8065L7.10094 14.978C6.56512 15.5139 6.2641 16.2406 6.2641 16.9983H10.2641ZM9.92937 17.8065C9.71504 18.0208 9.42435 18.1412 9.12124 18.1412V14.1412C8.36348 14.1412 7.63675 14.4422 7.10094 14.978L9.92937 17.8065ZM9.12124 18.1412H17.3087V14.1412H9.12124V18.1412ZM17.3087 18.1412C17.0056 18.1412 16.7149 18.0208 16.5006 17.8065L19.329 14.978C18.7932 14.4422 18.0664 14.1412 17.3087 14.1412V18.1412ZM16.5006 17.8065C16.2862 17.5921 16.1658 17.3014 16.1658 16.9983H20.1658C20.1658 16.2406 19.8648 15.5139 19.329 14.978L16.5006 17.8065ZM16.1658 16.9983C16.1658 16.6952 16.2862 16.4045 16.5006 16.1902L19.329 19.0186C19.8648 18.4828 20.1658 17.7561 20.1658 16.9983H16.1658ZM16.5006 16.1902C16.7149 15.9759 17.0056 15.8555 17.3087 15.8555V19.8555C18.0664 19.8555 18.7932 19.5545 19.329 19.0186L16.5006 16.1902ZM22.0264 15.8555H21.8207V19.8555H22.0264V15.8555ZM21.8207 15.8555C22.1238 15.8555 22.4145 15.9759 22.6288 16.1902L19.8004 19.0186C20.3362 19.5545 21.0629 19.8555 21.8207 19.8555V15.8555ZM22.6288 16.1902C22.8431 16.4045 22.9635 16.6952 22.9635 16.9983H18.9635C18.9635 17.7561 19.2646 18.4828 19.8004 19.0186L22.6288 16.1902ZM22.9635 16.9983C22.9635 17.3014 22.8431 17.5921 22.6288 17.8065L19.8004 14.978C19.2646 15.5138 18.9635 16.2406 18.9635 16.9983H22.9635ZM22.6288 17.8065C22.4145 18.0208 22.1238 18.1412 21.8207 18.1412V14.1412C21.0629 14.1412 20.3362 14.4422 19.8004 14.978L22.6288 17.8065ZM21.8207 18.1412H22.0264V14.1412H21.8207V18.1412ZM21.9941 18.1409C22.3159 18.1461 22.6354 18.0872 22.9342 17.9677L21.4482 14.254C21.6422 14.1763 21.8497 14.1381 22.0586 14.1415L21.9941 18.1409ZM22.9342 17.9677C23.233 17.8481 23.505 17.6703 23.7343 17.4446L20.9286 14.5936C21.0775 14.4471 21.2542 14.3316 21.4482 14.254L22.9342 17.9677ZM23.7343 17.4446C23.9637 17.2189 24.1458 16.9498 24.2701 16.653L20.5806 15.1077C20.6614 14.915 20.7796 14.7402 20.9286 14.5936L23.7343 17.4446ZM24.2701 16.653C24.3944 16.3562 24.4584 16.0376 24.4584 15.7158L20.4584 15.7163C20.4584 15.5073 20.4999 15.3004 20.5806 15.1077L24.2701 16.653ZM24.4584 15.7161V12.7743H20.4584V15.7161H24.4584ZM24.4584 12.7684C24.4568 12.2253 24.2734 11.6985 23.9376 11.2717L20.7941 13.7453C20.5776 13.4701 20.4594 13.1304 20.4584 12.7803L24.4584 12.7684ZM23.9376 11.2717C23.6018 10.8449 23.1328 10.5429 22.6054 10.4136L21.6531 14.2985C21.313 14.2152 21.0107 14.0204 20.7941 13.7453L23.9376 11.2717ZM22.1292 10.3561H17.0755V14.3561H22.1292V10.3561ZM17.0755 10.3561C17.0368 10.3561 16.9997 10.3407 16.9722 10.3134L14.1483 13.1463C14.9255 13.921 15.9782 14.3561 17.0755 14.3561L17.0755 10.3561ZM16.9722 10.3134C16.9448 10.286 16.9294 10.249 16.9292 10.2102L12.9293 10.223C12.9328 11.3204 13.3711 12.3716 14.1483 13.1463L16.9722 10.3134ZM16.9292 10.2166V5.62234H12.9292V10.2166H16.9292ZM16.929 5.6554C16.9343 5.33112 16.8744 5.0091 16.7528 4.70849L13.0447 6.20862C12.9652 6.01201 12.926 5.80139 12.9295 5.58928L16.929 5.6554ZM16.7528 4.70849C16.6312 4.40787 16.4503 4.13477 16.221 3.90544L13.3926 6.73387C13.2426 6.58386 13.1243 6.40523 13.0447 6.20862L16.7528 4.70849ZM16.221 3.90544C15.9917 3.67612 15.7186 3.49527 15.418 3.37365L13.9178 7.08169C13.7212 7.00214 13.5426 6.88385 13.3926 6.73387L16.221 3.90544ZM15.418 3.37365C15.1173 3.25202 14.7953 3.19211 14.471 3.19747L14.5372 7.19692C14.3251 7.20043 14.1145 7.16124 13.9178 7.08169L15.418 3.37365ZM14.5041 3.1972H4.40353V7.1972H14.5041V3.1972ZM4.40353 3.1972C4.70663 3.1972 4.99732 3.3176 5.21165 3.53193L2.38322 6.36036C2.91904 6.89618 3.64577 7.1972 4.40353 7.1972V3.1972ZM5.21165 3.53193C5.42598 3.74626 5.54639 4.03695 5.54639 4.34005H1.54639C1.54639 5.09781 1.84741 5.82454 2.38322 6.36036L5.21165 3.53193ZM5.54639 4.34005C5.54639 4.64316 5.42598 4.93385 5.21165 5.14818L2.38322 2.31975C1.84741 2.85557 1.54639 3.58229 1.54639 4.34005H5.54639ZM5.21165 5.14818C4.99732 5.3625 4.70663 5.48291 4.40353 5.48291V1.48291C3.64577 1.48291 2.91904 1.78393 2.38322 2.31975L5.21165 5.14818ZM4.40353 5.48291H14.5041V1.48291H4.40353V5.48291ZM14.5041 5.48291C14.5224 5.48291 14.5405 5.48652 14.5575 5.49352L16.0882 1.79801C15.586 1.58998 15.0477 1.48291 14.5041 1.48291V5.48291ZM14.5575 5.49352C14.5744 5.50053 14.5897 5.5108 14.6027 5.52375L17.4311 2.69532C17.0467 2.31094 16.5904 2.00603 16.0882 1.79801L14.5575 5.49352ZM14.6027 5.52375C14.6156 5.5367 14.6259 5.55207 14.6329 5.56898L18.3284 4.03825C18.1204 3.53603 17.8155 3.0797 17.4311 2.69532L14.6027 5.52375ZM14.6329 5.56898C14.6399 5.5859 14.6435 5.60403 14.6435 5.62234H18.6435C18.6435 5.07874 18.5365 4.54047 18.3284 4.03825L14.6329 5.56898ZM14.6435 5.62234V10.2029H18.6435V5.62234H14.6435ZM14.6435 10.2027C14.6435 10.5244 14.7075 10.843 14.8318 11.1398L18.5213 9.59457C18.602 9.78733 18.6436 9.99422 18.6435 10.2032L14.6435 10.2027ZM14.8318 11.1398C14.9561 11.4366 15.1383 11.7058 15.3676 11.9315L18.1733 9.0805C18.3223 9.22708 18.4405 9.40183 18.5213 9.59457L14.8318 11.1398ZM15.3676 11.9315C15.597 12.1572 15.8689 12.335 16.1677 12.4545L17.6537 8.74082C17.8478 8.81846 18.0244 8.93393 18.1733 9.0805L15.3676 11.9315ZM16.1677 12.4545C16.4665 12.5741 16.786 12.633 17.1078 12.6278L17.0433 8.62831C17.2522 8.62494 17.4597 8.66319 17.6537 8.74082L16.1677 12.4545ZM17.0755 12.6281H22.0264V8.62805H17.0755V12.6281ZM22.0004 12.6279C22.0374 12.6284 22.0743 12.6322 22.1107 12.6392L22.8747 8.71287C22.6036 8.66014 22.3284 8.63181 22.0524 8.62822L22.0004 12.6279ZM21.8863 12.5819L22.0371 12.6299L23.2499 8.8182L23.0991 8.7702L21.8863 12.5819ZM22.0823 12.6437C22.1086 12.6514 22.1316 12.6674 22.1479 12.6894L25.3582 10.3031C24.8225 9.58253 24.0665 9.05635 23.2048 8.80441L22.0823 12.6437ZM22.1479 12.6894C22.1642 12.7113 22.173 12.738 22.1727 12.7654L26.1726 12.797C26.1797 11.8992 25.8938 11.0236 25.3582 10.3031L22.1479 12.6894ZM22.1727 12.7812V15.7229H26.1727V12.7812H22.1727ZM22.1727 15.7101C22.1725 15.7488 22.1569 15.7857 22.1295 15.813L24.9489 18.6504C25.7257 17.8786 26.1656 16.8308 26.1726 15.7357L22.1727 15.7101ZM22.1295 15.813C22.1021 15.8402 22.0651 15.8555 22.0264 15.8555L22.0263 19.8555C23.1214 19.8555 24.1721 19.4223 24.9489 18.6504L22.1295 15.813Z" fill="#EF8220" mask="url(#path-1-inside-1_9580_560)"/>
<path d="M22.3216 12.3834C22.1454 12.3834 21.9736 12.3286 21.8298 12.2266C21.6861 12.1247 21.5776 11.9806 21.5193 11.8143L20.1479 8.00168C20.111 7.95023 20.0627 7.908 20.0068 7.87827C19.9509 7.84853 19.8889 7.8321 19.8256 7.83025H15.7731C15.5457 7.83025 15.3277 7.73995 15.167 7.5792C15.0062 7.41846 14.9159 7.20044 14.9159 6.97311C14.9159 6.74578 15.0062 6.52776 15.167 6.36702C15.3277 6.20627 15.5457 6.11597 15.7731 6.11597H19.8256C20.2056 6.11745 20.5782 6.22142 20.904 6.41693C21.2299 6.61243 21.4969 6.89223 21.6771 7.22682C21.6982 7.26665 21.7165 7.30789 21.7319 7.35025L23.1033 11.2383C23.1783 11.4529 23.1657 11.6885 23.0681 11.8939C22.9705 12.0992 22.796 12.2579 22.5822 12.3354C22.4977 12.3623 22.4102 12.3784 22.3216 12.3834ZM19.5651 21.5171C18.948 21.5171 18.3448 21.3341 17.8317 20.9913C17.3186 20.6485 16.9187 20.1612 16.6826 19.5911C16.4464 19.021 16.3846 18.3936 16.505 17.7884C16.6254 17.1832 16.9225 16.6273 17.3589 16.1909C17.7952 15.7546 18.3512 15.4574 18.9564 15.3371C19.5616 15.2167 20.1889 15.2785 20.759 15.5146C21.3291 15.7508 21.8164 16.1506 22.1592 16.6637C22.5021 17.1768 22.6851 17.78 22.6851 18.3971C22.6851 19.2246 22.3563 20.0182 21.7712 20.6033C21.1861 21.1884 20.3925 21.5171 19.5651 21.5171ZM19.5651 16.9914C19.2857 16.9846 19.0106 17.0612 18.775 17.2115C18.5393 17.3617 18.3538 17.5788 18.2422 17.835C18.1305 18.0912 18.0977 18.3748 18.148 18.6497C18.1983 18.9246 18.3294 19.1783 18.5246 19.3783C18.7197 19.5784 18.9701 19.7157 19.2437 19.7728C19.5173 19.8299 19.8016 19.8041 20.0605 19.6988C20.3194 19.5935 20.541 19.4134 20.697 19.1815C20.853 18.9497 20.9364 18.6766 20.9365 18.3971C20.9366 18.0302 20.7932 17.6777 20.537 17.415C20.2807 17.1524 19.9319 17.0003 19.5651 16.9914ZM6.85877 21.5171C6.24169 21.5171 5.63847 21.3341 5.12539 20.9913C4.61231 20.6485 4.21241 20.1612 3.97627 19.5911C3.74012 19.021 3.67833 18.3936 3.79872 17.7884C3.91911 17.1832 4.21626 16.6273 4.6526 16.1909C5.08894 15.7546 5.64487 15.4574 6.25009 15.3371C6.85531 15.2167 7.48264 15.2785 8.05274 15.5146C8.62285 15.7508 9.11013 16.1506 9.45296 16.6637C9.79579 17.1768 9.97877 17.78 9.97877 18.3971C9.97877 19.2246 9.65006 20.0182 9.06494 20.6033C8.47983 21.1884 7.68625 21.5171 6.85877 21.5171ZM6.85877 16.9914C6.58075 16.9914 6.30897 17.0738 6.0778 17.2283C5.84663 17.3828 5.66646 17.6023 5.56006 17.8592C5.45367 18.116 5.42583 18.3987 5.48007 18.6714C5.53431 18.944 5.66819 19.1945 5.86478 19.3911C6.06137 19.5877 6.31185 19.7216 6.58453 19.7758C6.85721 19.8301 7.13985 19.8022 7.39671 19.6958C7.65358 19.5894 7.87312 19.4093 8.02758 19.1781C8.18204 18.9469 8.26449 18.6751 8.26449 18.3971C8.26449 18.0243 8.11638 17.6667 7.85276 17.4031C7.58914 17.1395 7.23159 16.9914 6.85877 16.9914Z" fill="#EF8220"/>
<path d="M15.7728 17.8554C15.66 17.8563 15.5481 17.8348 15.4437 17.792C15.3393 17.7492 15.2444 17.6861 15.1646 17.6064C15.0849 17.5266 15.0218 17.4317 14.979 17.3273C14.9363 17.2229 14.9147 17.1111 14.9156 16.9982V9.50339C14.9156 9.27606 15.0059 9.05804 15.1667 8.89729C15.3274 8.73655 15.5454 8.64624 15.7728 8.64624C16.0001 8.64624 16.2181 8.73655 16.3789 8.89729C16.5396 9.05804 16.6299 9.27606 16.6299 9.50339V16.9982C16.6308 17.1111 16.6093 17.2229 16.5665 17.3273C16.5238 17.4317 16.4607 17.5266 16.3809 17.6064C16.3011 17.6861 16.2063 17.7492 16.1019 17.792C15.9975 17.8348 15.8856 17.8563 15.7728 17.8554ZM6.98877 9.53081H1.37277C1.14544 9.53081 0.927422 9.44051 0.766676 9.27976C0.605931 9.11902 0.515625 8.901 0.515625 8.67367C0.515625 8.44634 0.605931 8.22833 0.766676 8.06758C0.927422 7.90683 1.14544 7.81653 1.37277 7.81653H6.98877C7.2161 7.81653 7.43411 7.90683 7.59486 8.06758C7.7556 8.22833 7.84591 8.44634 7.84591 8.67367C7.84591 8.901 7.7556 9.11902 7.59486 9.27976C7.43411 9.44051 7.2161 9.53081 6.98877 9.53081ZM8.04477 13.3571H5.10991C4.88258 13.3571 4.66456 13.2668 4.50382 13.106C4.34307 12.9453 4.25277 12.7273 4.25277 12.5C4.25277 12.2726 4.34307 12.0546 4.50382 11.8939C4.66456 11.7331 4.88258 11.6428 5.10991 11.6428H8.04477C8.2721 11.6428 8.49011 11.7331 8.65086 11.8939C8.8116 12.0546 8.90191 12.2726 8.90191 12.5C8.90191 12.7273 8.8116 12.9453 8.65086 13.106C8.49011 13.2668 8.2721 13.3571 8.04477 13.3571Z" fill="#EF8220"/>
</g>
<defs>
<clipPath id="clip0_9580_560">
<rect width="24" height="24" fill="white" transform="translate(0.00146484 0.5)"/>
</clipPath>
</defs>
</svg>
