<svg width="47" height="47" viewBox="0 0 47 47" fill="none" xmlns="http://www.w3.org/2000/svg">
<g clip-path="url(#clip0_9138_18500)">
<path d="M25.2536 6.91249L29.0854 15.0383C29.3742 15.6352 29.9134 16.0589 30.5681 16.1551L39.156 17.4645C40.7542 17.7148 41.4089 19.7751 40.2343 20.9497L34.0148 27.2848C33.5527 27.7469 33.3409 28.44 33.4564 29.0947L34.9198 38.0293C35.1894 39.7045 33.5142 40.9753 32.07 40.1859L24.3871 35.9689C23.8094 35.6608 23.1355 35.6608 22.5578 35.9689L14.8749 40.1859C13.4307 40.9753 11.7556 39.7045 12.0251 38.0293L13.4885 29.0947C13.604 28.44 13.3923 27.7469 12.9301 27.2848L6.71061 20.9497C5.55529 19.7751 6.19071 17.6955 7.78891 17.4645L16.3768 16.1551C17.0122 16.0589 17.5707 15.6352 17.8595 15.0383L21.6913 6.91249C22.4038 5.39131 24.4834 5.39131 25.1958 6.91249H25.2536Z" stroke="#F69B26" stroke-width="3.03249" stroke-linecap="round" stroke-linejoin="round"/>
</g>
<defs>
<clipPath id="clip0_9138_18500">
<rect width="46.213" height="46.213" fill="white" transform="translate(0.393555)"/>
</clipPath>
</defs>
</svg>
