<svg width="47" height="47" viewBox="0 0 47 47" fill="none" xmlns="http://www.w3.org/2000/svg">
<g clip-path="url(#clip0_9138_18499)">
<path d="M25.0387 6.91249L28.8706 15.0383C29.1594 15.6352 29.6986 16.0589 30.3533 16.1551L38.9412 17.4645C40.5394 17.7148 41.194 19.7751 40.0195 20.9497L33.7999 27.2848C33.3378 27.7469 33.126 28.44 33.2416 29.0947L34.7049 38.0293C34.9745 39.7045 33.2993 40.9753 31.8552 40.1859L24.1722 35.9689C23.5946 35.6608 22.9207 35.6608 22.343 35.9689L14.66 40.1859C13.2159 40.9753 11.5407 39.7045 11.8103 38.0293L13.2737 29.0947C13.3892 28.44 13.1774 27.7469 12.7153 27.2848L6.49577 20.9497C5.34044 19.7751 5.97587 17.6955 7.57407 17.4645L16.162 16.1551C16.7974 16.0589 17.3558 15.6352 17.6447 15.0383L21.4765 6.91249C22.1889 5.39131 24.2685 5.39131 24.981 6.91249H25.0387Z" fill="#F69B26" stroke="#F69B26" stroke-width="3.03249" stroke-linecap="round" stroke-linejoin="round"/>
</g>
<defs>
<clipPath id="clip0_9138_18499">
<rect width="46.213" height="46.213" fill="white" transform="translate(0.180176)"/>
</clipPath>
</defs>
</svg>
